/* XPM */
static char *f47e1138abf74baaaf3e936b17984e56EDDDvVm1p2Sft2r3[] = {
/* columns rows colors chars-per-pixel */
"48 48 246 2 ",
"   c #010001",
".  c #06050A",
"X  c #170706",
"o  c #150C0C",
"O  c #1A100F",
"+  c #040815",
"@  c #170E13",
"#  c #0D1318",
"$  c #1C1312",
"%  c #16141C",
"&  c #1B1B1D",
"*  c #270A0E",
"=  c #221414",
"-  c #281718",
";  c #2C1B1B",
":  c #361918",
">  c #341C1D",
",  c #2F201E",
"<  c #39201F",
"1  c #0E1429",
"2  c #1E1D22",
"3  c #181927",
"4  c #221E23",
"5  c #2A1D24",
"6  c #331E22",
"7  c #3B1E21",
"8  c #1D262F",
"9  c #222125",
"0  c #2B2429",
"q  c #3B2323",
"w  c #372628",
"e  c #282736",
"r  c #3A2B35",
"t  c #580E17",
"y  c #461D1A",
"u  c #4A221B",
"i  c #53241B",
"p  c #57291E",
"a  c #59321C",
"s  c #63341C",
"d  c #653918",
"f  c #693D1C",
"g  c #5A192A",
"h  c #68182E",
"j  c #422324",
"k  c #492727",
"l  c #44252A",
"z  c #452B2A",
"x  c #4B2D2C",
"c  c #582524",
"v  c #562923",
"b  c #5A2C22",
"n  c #5B242B",
"m  c #532C2C",
"M  c #5D2D2A",
"N  c #4C322D",
"B  c #5B3329",
"V  c #472E35",
"C  c #592D33",
"Z  c #4D3232",
"A  c #483838",
"S  c #543434",
"D  c #573637",
"F  c #5D3935",
"G  c #65232E",
"H  c #632C2C",
"J  c #633426",
"K  c #693C25",
"L  c #63342B",
"P  c #6B3C2C",
"I  c #632B36",
"U  c #762B3A",
"Y  c #643435",
"T  c #6B3534",
"R  c #663937",
"E  c #6B3B35",
"W  c #64353B",
"Q  c #643C3B",
"!  c #6B3B3C",
"~  c #743C3B",
"^  c #6C431C",
"/  c #59413A",
"(  c #6D4323",
")  c #6D452A",
"_  c #6D4828",
"`  c #714625",
"'  c #734A28",
"]  c #724A2B",
"[  c #6A443A",
"{  c #6C433C",
"}  c #744533",
"|  c #754937",
" . c #794A35",
".. c #73433E",
"X. c #7B4D3B",
"o. c #7C5636",
"O. c #7D533C",
"+. c #0B264B",
"@. c #2F324C",
"#. c #453949",
"$. c #573945",
"%. c #453D52",
"&. c #752D47",
"*. c #653846",
"=. c #6D3C42",
"-. c #773B44",
";. c #76364E",
":. c #5D4343",
">. c #574549",
",. c #474556",
"<. c #4F4650",
"1. c #674748",
"2. c #6C4D4B",
"3. c #754443",
"4. c #7A4545",
"5. c #744A43",
"6. c #7A4A45",
"7. c #7C464B",
"8. c #75494B",
"9. c #7C4C4A",
"0. c #6B554F",
"q. c #7A5746",
"w. c #7C544C",
"e. c #654B51",
"r. c #794856",
"t. c #7C4B54",
"y. c #7A5756",
"u. c #78615C",
"i. c #535269",
"p. c #715766",
"a. c #6F666E",
"s. c #7B6768",
"d. c #756974",
"f. c #81543D",
"g. c #825B3C",
"h. c #863A4E",
"j. c #814D45",
"k. c #85424D",
"l. c #824E4B",
"z. c #825545",
"x. c #845C44",
"c. c #885E46",
"v. c #83534B",
"b. c #86594D",
"n. c #895B4D",
"m. c #844955",
"M. c #954959",
"N. c #835553",
"B. c #845B53",
"V. c #8A5C53",
"C. c #83535A",
"Z. c #875758",
"A. c #8B5B5A",
"S. c #95585C",
"D. c #866348",
"F. c #856459",
"G. c #89645D",
"H. c #91695C",
"J. c #885963",
"K. c #975A69",
"L. c #935D71",
"P. c #A05970",
"I. c #856663",
"U. c #8A6462",
"Y. c #8B6B65",
"T. c #8D6B6A",
"R. c #966868",
"E. c #8A7469",
"W. c #93736C",
"Q. c #9C796A",
"!. c #976B76",
"~. c #847675",
"^. c #967676",
"/. c #9B7373",
"(. c #9D7C7B",
"). c #A76777",
"_. c #A96E76",
"`. c #A77677",
"'. c #A37C7B",
"]. c #9C8478",
"[. c #A4827D",
"{. c #A8877A",
"}. c #A98B78",
"|. c #797782",
" X c #917984",
".X c #B06E80",
"XX c #A67688",
"oX c #B77889",
"OX c #959199",
"+X c #A48482",
"@X c #AB8382",
"#X c #AA8A87",
"$X c #B4898A",
"%X c #AE9286",
"&X c #AD938C",
"*X c #B3988D",
"=X c #B49A8D",
"-X c #AC8F94",
";X c #B88B94",
":X c #A59498",
">X c #B59492",
",X c #B79896",
"<X c #BB9D9A",
"1X c #BCA08A",
"2X c #BCA596",
"3X c #BDA29C",
"4X c #B091A2",
"5X c #BA92A3",
"6X c #BDA4A3",
"7X c #BEAEB1",
"8X c #C3989B",
"9X c #C2A89D",
"0X c #C897A6",
"qX c #CA9CAD",
"wX c #D49EB1",
"eX c #C3A5A3",
"rX c #C4AAA4",
"tX c #C8A8A6",
"yX c #C5ACA9",
"uX c #CBACAA",
"iX c #D0AAAC",
"pX c #C7B3A6",
"aX c #CCB3AD",
"sX c #D3B6AF",
"dX c #CCA5B5",
"fX c #D4A3B5",
"gX c #D6AABA",
"hX c #CDB5B2",
"jX c #CEBAB6",
"kX c #D5B6B6",
"lX c #D3BAB6",
"zX c #D3BCBA",
"xX c #DBBEBC",
"cX c #D7C2BA",
"vX c #E0C1BE",
"bX c #D4B2C2",
"nX c #D9B8C4",
"mX c #DEC4C2",
"MX c #DCC7C7",
"NX c #DDD1C2",
"BX c #E3C5C3",
"VX c #E3C9C8",
"CX c #EBCCCB",
"ZX c #E9CDD3",
"AX c #EDD2D8",
"SX c #F1D5D6",
/* pixels */
"R.1X}.[ / / >.>.0.d.~.].:X2X3X3X,X,X>X>X$X#X#X@X@X@X#X$X#X[.@X@X[.'./.W.R.T.H.G.G.H.G.I.G.E.E.Y.",
"Q.=X&X].E.0./ / >.<.r / <.u.E.W.(.#X#X@X@X'.@X[.oX'.oX[.'.[.'.`.'.'./.W.E.G.u.F.y.u.F.u.F.E.E.E.",
"H.%X=X=X:X%X].0.A w ; & .   $ < 1.y.T.(.(.'.'.'.[.[.'.'.(.(./.W.(.T.Y.I.y.1./ F N N N A / 0.0.u.",
"o.}.=X2X=X=X:X+XY.$.q $ $ $ $ = w z / y.U.W././.'././.!.T.U.U.G.0.1.:.>.Z > $ $ O X o o $ & $ 0 ",
"] ].2X1X].E.E.Y.T.A.1.Z 6 = X X $ , q N 2.I.!./.T.I.I.y.5./ [ z ; ; O X o o O @ O O $ $ O - w r ",
"a.d.d.~.u.>.N N S C S S V l l l ; = ; q m 0.J.T.U.A.y.[ z q ; O = $ o @ o o . o O - , q N F / [ ",
"s.s.d.a.,.,.,.,.%.@.5 4 5 6 l V Z z < < N 2.G.T.J.y.1.z - = = O X o O $ $ - > j x N S F / / [ 0.",
"}.}.1X2XF.1.>.>.<.%.@.@.@.e 1 5 w Z S x F [ w.I.B.w.[ u : - : : > q q j z V C S F F Y F Q [ 2.q.",
"NX}.}.pX2X].+XOXd.#.3 @.+.@.@.+.3 3 w z 1.T.(.^.I.5.B v u u u u 7 7 6 6 6 > 6 7 q q u j N Q [ q.",
"NX9X}.pXpX*X^.:X:Xa.1 +.+.@.|.@.@.e 3 3 0 0.~.^.I.1.N z r r w 0 5 3 1 3 @ + # @ # @ ; > : k / [ ",
"BX9XQ.}.pX2X#X^.:X:Xd.i.i.|.i.%.#.$.@.# 1 1 + 1 2 + # 3 8 e e 8 4 5 e 3 8 3 % 3 5 0 5 & # # % ; ",
"sX9X}.}.6X3X&X^.s.d.a.a.p.i.$.$.$.I $.5 . + + .   @ # . ; 7 : * * w #.5 1 1 X ; $.$.< : > k S A ",
"}.9X1XH.}.9X#X[.U.r.*.*.$.$.$.$.$.p.#Xs.  r A z 0 + . 0 S m k j 7 6 r r = o O w S j : m { [ q.w.",
"^ }.pXQ.].9X#X/.R.p.e.1.*.*.*.e.!.6XhX~.  *.4.8.w.V   k M m k j l l l 7 6 q q l j k L [ 2.q.u.D.",
"^ }.sX=Xn.%X9X+XT.y.;.*.*.*.s.#XyXzXaXe.  g ! -.E k . k Y M c k l l l l l l x m D [ [ 5.q.q.b.F.",
"` }.sX9XQ.R.9X9X>X+X^.T.!.^.;XyXlXzX=X  D -XeX+Xm.j + j E E T Y m m l l C m C F [ [ [ q.w.b.F.F.",
"| %XpXpX{.A.>XhXhXpXyX6X6XeXuXhXhXhXI.* ,XMXMXuX+X=.X : E ....~ R C C C C m F Q Q 3.5.q.w.F.G.F.",
"N (.pXsXeXR.+XhXjXjXzXhXhXhXyXpXaX&XX  XmXBXMXhX,XU.: - ! 4.4.4.3.! F C C D Q [ { q.w.w.b.B.F.B.",
"a A a.&X7X{.R.;XlXlXlXhXyXyXuXuX<X$.l 5XBXmXxXuX;XR.L   F 6.5.4.6.5.3.{ { { { 3.5.w.w.y.y.w.b.V.",
"( ^ F.~.d.d.d.+X7XjXzXbXhXyX:X X$.* T.lXBXBXcXuX$XR.X.* j 5.5.4.4.5.8.9.9.5.5.9.w.N.B.F.B.B.B.F.",
") ^ ].pXpX3X Xp.a.|.OXOXOX Xi.>.G.Z.,XBXBXVXnXuX$XR.j.c . D 3.3.-.3.3.9.9.9.9.w.w.B.B.B.B.B.Z.B.",
"_ d H.9XlXzXeXR.C.C.C.t.m.J.T.^.!./.cXCXVXCXBXuX$X_.V.U y $ z R =.3.8.9.y.v.w.w.w.N.N.B.b.y.F.B.",
"_ ^ D.9XhXlXaX'.S.J.J.J.J.p.J.I.Z.<XCXCXSXSXBXiX9X`.H.f.T M * - l C 1.C.C.Z.Z.B.N.A.Z.N.B.B.y.2.",
"_ ^ o.1XaXhXhX$XC.C.t.m.r.r.r.r.#XmXCXCXSXSXBXsX8X{.K.f.T H c y : 6 6 r V $.e.e.e.e.e.>.>.#.#.A ",
"_ _ ' }.pXaXyX@XS.C.m.r.r.r.*.XXBXCXBXSXSXCXvXiX8X{.S.v.~ G G i C ! W =.2.e.:.D S D D D R | o.g.",
"_ _ ^ Q.rXaXyX[.C.C.r.r.r.r.r.eXCXvXBXCXSXCXiXtX8X`.R.n.j.f.G c I W =.t.R./.R.S.V.V.V.n.V.c.g.g.",
"_ ' ^ F.2XyXyX$XJ.C.t.t.y.y.t.<XvXxXvXBXBXxXiX8X{._.H.S.N.j.Y M W W =.=.N.R.G.V.N.b.b.b.n.c.g.g.",
") ) ) o.#XrXrX>XU.t.m.l.t.m.7.J.$XiXkXkXgXiX8X;X_.).S.V.V.l.T W *.Q *.=.8.Z.A.V.b.B.B.n.n.c.g.g.",
"_ _ _ ^ W.3X6X3X[.R._./.`./.!.R.Q.#X9XtXtX5X$X`.R.S.V.l.k.~ T ! =.=.=.! 4.9.N.b.N.n.V.b.n.c.g.f.",
"] _ ( s O.*XrX6XrXtXaXlXjXzXcXcXxX0XR.XX#X!.L.J.m.l.~ L H H T 3.3.8.3.-.-.9.v.V.V.n.V.b.g.g.f.^ ",
"_ ( s s ( [.3X3XrXaXlXlXlXcXmXVXMXnX+X4.C.t.m.r.3.T M M H T -.4.6.7.9.4.4.9.v.N.n.n.v.b.g.g.' ^ ",
"f a s K ^ D.&X<XeXaXaXuXlXmXMXVXZXVXjX(.=.r.=.! Y Y ! ! ! 3.3.4.4.9.l.l.6.z.v.b.v.n.v.x.g.f.' f ",
"a s f ` ` ] Q.*X6XyXpXhXzXBXBXVXVXMXcXeXJ.I W Y W ! ..3.3.3.3.3.4.6.6.9.l.v.z.v.z.z.x.z.o.' ` f ",
"d ( ( ` ` ^ D.#X3X3XrXaXxXcXmXMXBXnXcXyXQ.G n Y ! ! 5.3.6.9.9.6.4.3.3.l.z.v.j.v.z.z.f.O.o.` f f ",
"^ ( ` ` ( ` ^ F.%X>X>X,X>XoX}.$X0XiXqXqX8X@X!.-.~ 4.9.9.w.v.N.9.5.3.5.9.z.j.j.z.z.f.f.o.o.f f K ",
") ( ` ` ) ( a _ Y.].(.G.7.K.!.h.&.M.P..XoX8X8XM.h.h.4.j.k.7.l.N.9.6.5.6.6.6.j.6.z.X.z.D.) d f ^ ",
"` ` _ _ ^ a a u :.Y.(.(.;XbXnXbX4X X&.h U ;.h.&.U T h I h g G I ! 3.3...5.6.X.X.| o.O.q.) d ^ ( ",
"_ ( ^ N z q < 9 0 1.Y.#X,XnXAXnXbXdXoX Xr.&.G &.*.*.*.*.*.*.*.I c M Q 3.X.| } } } | o.x. .f ( ( ",
"0 , & & 2 9 9 9 = 0.s.^.5XbXAXbXdXdXqX5XoXXXL.;.&.&.&.r.r.;.;.k.Y M R { [ E P P P } X.x.q._ ( K ",
"# % & 9 9 9 , 9 X E.&Xy.XX5XbXZXqXdXqXqX5X5X5XXX_.XX Xm.;.m.m.r.Y Y Y L L J J P P } o.f.D.o.( K ",
"& 2 2 2 9 9 9 0 X F.pX].s.,X8XbXBXwX0X0XqXwXwXqXbXnXkXoXm.k.k.T E E Y b b b J P ) } } f.D.c.' f ",
"& & 2 2 9 9 9 9 = q.cXpXE.[.;X_.gXgXwX0XqXwXfXfXbXgXgXwXoXM.~ T E B b v b p J J P } P f.f.c.c.( ",
"& 2 9 9 9 9 & 9 = [ pXNX&X^.;XoXK.0XfXfXwXwXfXbXgXfXfX8X_.-.T T b v p p p s J J P  .} f.f.c.D.q.",
"& 9 9 9 9 9 & 9 % S 6XNXpX+X+X$X).h..X0XfXwXwXwXwX0X_.M.U G C v v v p p b b J P P P  .}  .f.D.D.",
"2 9 9 9 9 9 2 & 9   ].cXcX*X#X]._.K.&.h.).oXoXoX_.M.U h H H c c c v i i b b J P P }  . . .f.f.D.",
"9 9 2 9 9 9 9 & & #   s.2X2X}.#X'.J.K.;.g h &.U h t h J H b c c b p i i p J P P P }  .|  .f.f.g.",
"9 2 2 9 9 2 9 2 & & &   0 ].].+X#X+XC.r.&.g n g c G b c M M B B p i i p a J P E } } | |  .X.f.c.",
"9 & 2 9 2 2 2 2 2 & & 9 .   0 y.^.+XR.D W C I I H G H J B b B v u u i p B B P } { } } } |  .X.f."
};
