/* XPM */
static char *_9396da259ef46d292711b7f823e8f18ZCN1cCHAsFVRwF7Y[] = {
/* columns rows colors chars-per-pixel */
"48 48 193 2 ",
"   c #030303",
".  c #080606",
"X  c #05050A",
"o  c #09060A",
"O  c #07080C",
"+  c #0A0A0C",
"@  c #110907",
"#  c #110D0E",
"$  c #0F100C",
"%  c #14120E",
"&  c #18140E",
"*  c #030512",
"=  c #0C0714",
"-  c #0D0D12",
";  c #0C0D19",
":  c #05061F",
">  c #110E14",
",  c #180E1A",
"<  c #180D17",
"1  c #0F1013",
"2  c #0D111D",
"3  c #121215",
"4  c #1B1411",
"5  c #161817",
"6  c #1A1915",
"7  c #15151A",
"8  c #19151B",
"9  c #16181B",
"0  c #1A1A1D",
"q  c #211D1A",
"w  c #0B1222",
"e  c #131623",
"r  c #1C1C22",
"t  c #16192A",
"y  c #1C1B30",
"u  c #241D23",
"i  c #2B1E24",
"p  c #231F2A",
"a  c #291E2B",
"s  c #1F2225",
"d  c #1D232D",
"f  c #1E2230",
"g  c #162132",
"h  c #222125",
"j  c #2C2324",
"k  c #24242A",
"l  c #2D252C",
"z  c #26292C",
"x  c #2C292A",
"c  c #33272B",
"v  c #322B2C",
"b  c #36302E",
"n  c #39322B",
"m  c #37392E",
"M  c #2F2730",
"N  c #252B37",
"B  c #232838",
"V  c #2D2B3B",
"C  c #2D2B34",
"Z  c #302530",
"A  c #342B33",
"S  c #2D3036",
"D  c #2E383F",
"F  c #2D3139",
"G  c #3A3434",
"H  c #3B323B",
"J  c #3D3B3A",
"K  c #373739",
"L  c #41353D",
"P  c #413F3F",
"I  c #48393D",
"U  c #4A3E36",
"Y  c #49433C",
"T  c #554D3F",
"R  c #2F3340",
"E  c #2E384B",
"W  c #383740",
"Q  c #353B44",
"!  c #3A3B43",
"~  c #353948",
"^  c #3B3D49",
"/  c #453B44",
"(  c #4A3D42",
")  c #3C454C",
"_  c #3F4345",
"`  c #3E4857",
"'  c #3C4759",
"]  c #424344",
"[  c #4B4643",
"{  c #4B414A",
"}  c #4A4A49",
"|  c #524B46",
" . c #534D49",
".. c #55534B",
"X. c #5C564C",
"o. c #444953",
"O. c #4B4E55",
"+. c #444B5A",
"@. c #4C4E5A",
"#. c #434656",
"$. c #534A52",
"%. c #4B515D",
"&. c #5D5952",
"*. c #585059",
"=. c #565A5F",
"-. c #585653",
";. c #615F5C",
":. c #645F53",
">. c #65615F",
",. c #6D665C",
"<. c #4D5961",
"1. c #525763",
"2. c #515D66",
"3. c #5B5F66",
"4. c #555C6B",
"5. c #5C616D",
"6. c #5E6571",
"7. c #596779",
"8. c #6E6C65",
"9. c #666A6D",
"0. c #746E66",
"q. c #777266",
"w. c #73716A",
"e. c #666A76",
"r. c #686D71",
"t. c #676D7C",
"y. c #686B79",
"u. c #6B727E",
"i. c #72757C",
"p. c #80756B",
"a. c #87887D",
"s. c #828179",
"d. c #908B7D",
"f. c #656E86",
"g. c #6D7481",
"h. c #6A7389",
"j. c #717782",
"k. c #747983",
"l. c #757D8D",
"z. c #7D8388",
"x. c #7C8492",
"c. c #7F8896",
"v. c #7C8898",
"b. c #958F83",
"n. c #95948B",
"m. c #828A95",
"M. c #838D9B",
"N. c #8B929D",
"B. c #959798",
"V. c #878685",
"C. c #A3A196",
"Z. c #8D95A2",
"A. c #8F99A6",
"S. c #8C96A9",
"D. c #929AA3",
"F. c #969EA8",
"G. c #999FA8",
"H. c #989CA1",
"J. c #95A0AC",
"K. c #9CA4AD",
"L. c #9CA0A4",
"P. c #9DA6B1",
"I. c #A0A5A9",
"U. c #A2A9AF",
"Y. c #A4ACB3",
"T. c #A8AFB7",
"R. c #A6AFB9",
"E. c #A8AFB9",
"W. c #A7B0B7",
"Q. c #A8B0B7",
"!. c #A7B1B9",
"~. c #AAB2BB",
"^. c #B2B4B5",
"/. c #AEB7C0",
"(. c #ADB6C2",
"). c #AEB9C3",
"_. c #B1B9C2",
"`. c #B2BBC5",
"'. c #B4BECA",
"]. c #B1B6C2",
"[. c #BEC3C7",
"{. c #B5C2CE",
"}. c #BAC2CF",
"|. c #BEC5CC",
" X c #B7C2D0",
".X c #BCC4D2",
"XX c #C1C7CC",
"oX c #C1C7CD",
"OX c #C0C7CE",
"+X c #C1C7CC",
"@X c #C2C8CE",
"#X c #C2CAD5",
"$X c #C3CAD2",
/* pixels */
") ) ) XXXXXXY.Y.Y.+X+X+X+X+X@XY.Y.Y.+X+X+XY.Y.Y.+X@X+X+X@XXX~.R.}..XQ.Y.|.@X+XY.Y.Y.+X+X+X) ) ) ",
") ) ) XXXXXXY.Y.Y.+X+X+X+X+X@XY.Y.Y.+X+X@XY.Y.Y.+X+X+X@X@XG.^ ) m..X}.W.+X+X+XY.Y.U.+X+X+X) ) ) ",
") ) ) XX+X+XY.Y.Y.+XXXXX+X+X+XY.Y.Y.+X+X@XY.Y.Y.@X@X@X@X].W ; o ^ N. X~.+X@X@XY.Y.Y.+X+X|.) ) _ ",
"XXXXXXY.Y.Y.U.Y.Y.Y.Y.Y.Y.Y.Q.Y.Y.Y.Y.U.Y.Y.Y.W.Y.Y.Y.~.g.> 8 < h 5.(.(.Y.Y.Y.Y.U.Y.Y.Y.W.XXXXXX",
"+X@X+XU.Y.U.Y.Y.Y.Y.W.T.Y.Y.Y.Q.Y.Y.Y.Y.Y.Y.Y.Y.Y.Y._.P.B X j j j { Z.(.Y.Q.Y.Y.Y.Y.Y.U.W.+XXXXX",
"+X+X+XY.Y.Y.Y.Y.Q.Y.Y.Y.Y.W.Q.Y.Y.Y.Y.Y.Y.Y.Y.Y.Y.Y.~.g.* ; u c j S e.!.W.~.Y.Y.Y.Y.U.W.U.+XXXXX",
"Y.Y.Y.Y.Y.Y.Y.Y.Y.Y.Y.Y.Y.Y.Y.Y.Q.Y.Y.Y.Y.Y.Y.Y.Y.Q.~.o.X w i v v u 1.Y.Q.~.Y.Y.Y.U.Y.U.Y.Y.Y.Y.",
"Y.Q.~.Y.Y.Y.W.Y.Y.!.Y.Y.Y.Y.Y.Y.Y.Y.Y.Y.Y.Y.Y.Y.Y._.P.y X r x G v h o.J.!.(.Y.Y.U.W.U.W.Y.Y.Y.Y.",
"Q.Y.Y.W.(.`.'.(.U.R.R.Y.Y.Y.Y.Y.Y.Y.Y.Y.Y.Y.Y.Y.Y.'.l.= X 0 v K x u K J.~.~.R.Y.Y.U.Y.U.U.Y.Y.Y.",
"@X+X@X~.M.f.h.R.(.E.E.T.Y.Y.Y.Y.Y.Y.Y.Y.Y.Y.Y.Y./..X` X O 5 q x v u A D./.Q.T.Y.Y.Y.Y.W.W.+X+X+X",
"XXXX$XS.t : y V y.K.T.T.Y.Y.Y.Y.Y.Y.Y.Y.Y.Y.P.(.#XN.t X O % 6 u A i j N.Y.T.R.Y.Y.Y.W.U.U.+X+X+X",
"XX@X#Xt.= , a < = +.M.R._.T.Y.Y.Y.Y.Y.Y.Y.Y.(.(.c.V   O + + + 0 c p > k.Y.~.Y.Y.Y.Y.U.Y.Y.+X+X+X",
"$X@X.X9.= c A c 7 * g ' A.~.!.Y.Y.T.Q.R.J.D.l.4.N     - + + - 3 p a X @.K.W.W.W.Y.Y.Y.Y.Y.Y.U.Y.",
"XX@X#Xg.7 v H A l 8 * * N k./._.~.R.M.5.~ f e -     O O O + - - 7 r   C K.W.W.W.Q.Y.Y.Y.Y.Y.Y.Y.",
"XXXX$Xm.k u ( ( / Z , * X e %.j.u.#.f *         O - - * O - * + - +   s m._.Q.W.W.Y.Y.Y.U.Y.Y.Y.",
"Y.Y.~.F.V < / $.*./ p = * * * - + X   X + 1 3 1 1 1 1 O 1 3 1 + +       _ J.~.Q.Y.Y.Y.U.Y.+X+X+X",
"Y.Q.Q.T.@.o i L $.{ A r e ; X     o 5 0 9 7 3 5 7 9 5 3 5 5 3 > > + .   X #.J. X(.!.Y.Y.Y.+X+X+X",
"Y.Y.Y.].x.a < Z / H A l s 9 -     + 5 9 7 7 7 2 9 r 5 5 5 3 # > = > + O   w 7.'.(.P.Y.Y.Y.+X+X+X",
"XXXX+XT.R.1.r Z H A a a h 9 = o + 3 3 9 7 7 7 7 1 1 - 1 o o . + @ # 3 - * X E S.`.!.Y.Y.Y.+X+X+X",
"XX+X+XT.].D.W q / H u 8 r 9 > - 3 3 3 9 5 9 e 7 - X X O . q n j & O - > > X ; 4.(.(.W.Y.Y.+X+X+X",
"XX[.XXR.~.Q.i.3 8 c , + 3 8 3 > > + - > 1 9 r h 8 +   . & | ,.,...5   7 7 X X D Z.{.!.Y.Y.XX+X+X",
"Y.Y.Y.Y.Q.~.L.^ o u + X O 3 > - +     . O 9 r k r 3 + @ U p.Y :.8.v   5 7 ;   t u.'.!.Y.Y.XX+X+X",
"Y.Y.Y.Y.~.~.R.e.X > + o - 7 -             9 h r r 7 O % | b.  v ,.v . > - -   ; 4.(.!.Y.Y.+X+X+X",
"Y.Y.Y.Y.~.~.Y.m.- X X - 7 3 X   3 x q + . 3 h h r 7 O @ n d.v  .| 4 o + + +   O o.P.(.Y.Y.+X+X+X",
"+X+X+XY.Y.~.~.D.k   O - 7 + o 6 -.w.s.&.h % r k r 7 X X 4 n  .| q   . + + + .   D J.{.W.Y.Y.Y.Y.",
"+X+X+XY.Y.Q.'.F.S   # 7 - X $ ..n.8.[ q.,.0 9 h 8 + o O o + % 0 5 O O + + o     N A.{.~.Y.Y.Y.Y.",
"+X+X+XU.Y.Y._.J.V O 3 3 +   % 8.C.]   X.,.6 0 8 = X O O o + 3 9 1 + + $ + + .   d v.|.Y.Y.Y.Y.Y.",
"+X+X+XU.Y.Y.Q.R.Q + 5 9 O   . } a.8.[ 0.n @ 3 8 - O O . . + O O O + + + + + o   d v._.Y.Y.[.XXXX",
"+X+X+XY.Y.Y.Q.(.O.O 5 8 $     & m } >.J + o > 7 O X O o O . o .   O + + O + +   s x.~.Y.Y.|.|.XX",
"+X+X+XU.Y.Y.Y.`.5.* 9 8 3 o     . . 3 . X - 7 7 - 3 3 - O o o o + + + + + + +   s x.{.Y.Y.|.@X@X",
"+X+X+XY.U.Y.Y.~.i.- ; r 5 1 O O X X   3 r s u r 8 k k 0 + O + + 1 3 $ O . + O   g Z.!.Y.Y.Y.Y.Y.",
"+X+X+XY.Y.Y.Y.Y.x.; * r 0 9 1 - - - 7 h z k k r 0 r k 8 9 9 1 % 1 1 - $ + O O   D J.!.Y.W.Y.Y.Y.",
"+X+X+XY.Y.Y.U.Y.B.s X e 7 7 3 1 - - 7 h k r r r 9 > 7 - 7 r 7 3 - 3 + - + + -   ) R.!.Y.Y.Y.Y.Y.",
"Y.Y.U.Y.Y.U.U.Y.P.J   ; 7 7 3 7 3 3 7 r r r 0 r 8 7 ; - 8 r 7 3 1 + + 3 > + X * 6.R.Y.!.R.|.@X@X",
"Y.U.Y.Y.Y.U.U.Y.R.o.  X 2 3 3 3 3 3 9 r 9 8 r r r r 3 - 7 7 ; - + - - - + + X N N.!.Y.P.Y.|.|.@X",
"Y.Y.Y.Y.Y.Y.Y.U.Q.1.X   + 1 + 1 1 + 3 0 r 0 r r r 9 - = 3 > > - + + + + O X 7 3.!.R.Y.Y.Y.|.|.+X",
"@X@X@XU.Y.Y.U.Y.W.m.k     . O O O O $ 7 7 0 9 0 0 7 - O - 7 - + + + + + O . 9 i.`.~.!.Y.Y.|.@X+X",
"+X+X@XY.Y.Y.Y.Y.Y.(.O..   .   .   . O + - - 7 9 7 1 7 - ; - - - + - + +     O S e.!.(.Y.Y.|.|.|.",
"+X@X@XY.Y.Y.U.Y.K.Q.1..             o O O O $ 1 ; 3 7 7 7 - - - - 1 + 1 O .     7 6.P.~.Y.+X+X+X",
"U.Y.U.Y.Y.Y.Y.U.U.H.} .     .     . . . .   O O - - > > > - - - - > + +   O . k 1.Z.Y.Y.Y.U.Y.Y.",
"Y.Y.Y.Y.Y.U.Y.Y.Y.K.;.0 .                   . .   . O $ O $ O O . O . $ K r.H.Y.Y.Y.Y.Y.Y.Y.Y.Y.",
"Y.Y.Y.Y.Y.Y.Y.Y.Y.L.V.J o                   . . .     .         5 _ i.L.Y.Y.Y.Y.Y.Y.Y.U.U.Y.Y.Y.",
"2.2.2.XX[.XXY.Y.U.[.^.8.4                         . .     h ..z.Y.|.@X@X|.|.|.Y.Y.Y.@X+X@X2.2.2.",
"2.2.2.XXXXXXY.Y.Y.+X[.n.J X                         x r.I.|.Y.Y.Y.|.|.@X@X|.|.Y.Y.U.@X+X@X2.2.2.",
"2.2.2.|.|.XXY.Y.Y.[.|.Y.>.3                 $ J r.D.Y.|.|.|.Y.Y.Y.|.|.@X|.|.|.Y.Y.U.|.|.XX5.2.2.",
"_ ) ) 5.2.2.2.2.2.<.5.5.=.q           . s _ <.2.2.2.2.2.2.2.2.2.2.2.<.5.2.2.5.<.5.2.2.2.2._ ) ) ",
") ) ) <.2.2.2.2.2.2.2.2.2.Y #   $ d ) 2.2.2.2.2.2.2.2.2.2.2.2.2.2.<.2.2.2.2.2.2.<.2.2.2.2.) ) ) ",
") ) ) 2.2.2.2.2.2.2.2.<.5.-.P o.2.2.2.2.2.2.2.2.2.2.2.2.2.2.2.2.2.2.2.2.2.2.2.2.2.2.2.2.2.) ) ) "
};
