/* XPM */
static char *d8825201fd4a4843b3dff3ba411f1380PoooNQRxkf1zv8th[] = {
/* columns rows colors chars-per-pixel */
"16 16 20 1 ",
"  c None",
". c #232936",
"X c #2D4959",
"o c #304253",
"O c #304960",
"+ c #305362",
"@ c #385E7A",
"# c #366773",
"$ c #47444A",
"% c #634640",
"& c #704F46",
"* c #7C574C",
"= c #916656",
"- c #986C5A",
"; c #9E725D",
": c #B58567",
"> c #BF957A",
", c #3A6E85",
"< c #3E838C",
"1 c #C7A189",
/* pixels */
" ooo            ",
"$<<,o  +++      ",
"&$:.,o+<<+      ",
"&$::>,o##+      ",
"&1>>*<,o<<+     ",
" &**=%<,o#+     ",
" &1:=-%<,o+     ",
" &1:%=-%,o#+    ",
"  &1:%%%<,o#+   ",
"   &1:::;,o#+   ",
"    &&&1:;@o    ",
"    X,X&&:;@ooo ",
"     XX  &:OO,o ",
"          oO@o  ",
"          o,o   ",
"          oo    "
};
