/* XPM */
static char *_f43822cce354542b8e2305ec9aebee6Nk6Ra3yRv1bpEVBV[] = {
/* columns rows colors chars-per-pixel */
"48 48 238 2 ",
"   c #040202",
".  c #0A0402",
"X  c #0B0905",
"o  c #050409",
"O  c #09060A",
"+  c #07090B",
"@  c #0C0A0B",
"#  c #070803",
"$  c #130301",
"%  c #120B03",
"&  c #120E0D",
"*  c #1A0A05",
"=  c #14100E",
"-  c #1B120D",
";  c #1D1404",
":  c #0D0D11",
">  c #0C0713",
",  c #130E12",
"<  c #180F11",
"1  c #190F18",
"2  c #0F1215",
"3  c #151213",
"4  c #1A1514",
"5  c #1C1915",
"6  c #151419",
"7  c #1A161A",
"8  c #1C1A1B",
"9  c #17181A",
"0  c #0F100B",
"q  c #221916",
"w  c #201719",
"e  c #231C1C",
"r  c #2A1D1D",
"t  c #241616",
"y  c #2E170A",
"u  c #24211D",
"i  c #2B231E",
"p  c #2A2318",
"a  c #35281A",
"s  c #1E1D22",
"d  c #221C21",
"f  c #291D22",
"g  c #251F29",
"h  c #301F25",
"j  c #1C2021",
"k  c #252224",
"l  c #2B2423",
"z  c #2B2925",
"x  c #24242A",
"c  c #2A252A",
"v  c #2D2A2B",
"b  c #332A25",
"n  c #392823",
"m  c #332D2C",
"M  c #372926",
"N  c #34312E",
"B  c #3B322E",
"V  c #393223",
"C  c #2E2D33",
"Z  c #332D31",
"A  c #353333",
"S  c #3B3533",
"D  c #3B3936",
"F  c #3C3B3A",
"G  c #36353A",
"H  c #2E302E",
"J  c #45291D",
"K  c #44352D",
"L  c #46372C",
"P  c #433535",
"I  c #443C36",
"U  c #4B3B34",
"Y  c #433D3B",
"T  c #4B3D3B",
"R  c #513E35",
"E  c #4A352B",
"W  c #3E4138",
"Q  c #5C482F",
"!  c #44413C",
"~  c #4B413D",
"^  c #4A4333",
"/  c #57443B",
"(  c #59523F",
")  c #654B3E",
"_  c #3C3C40",
"`  c #423E42",
"'  c #4B3F41",
"]  c #464343",
"[  c #4B4544",
"{  c #4E4A45",
"}  c #4A464A",
"|  c #4D4A4B",
" . c #45434A",
".. c #504544",
"X. c #534A43",
"o. c #534D4B",
"O. c #5A4B46",
"+. c #55524D",
"@. c #5A534D",
"#. c #5D5446",
"$. c #4C4B51",
"%. c #545353",
"&. c #5A5552",
"*. c #5C5954",
"=. c #5E5B5B",
"-. c #57565A",
";. c #515053",
":. c #624F4B",
">. c #61554D",
",. c #655C4A",
"<. c #685748",
"1. c #715946",
"2. c #625A54",
"3. c #6B5B51",
"4. c #635D5C",
"5. c #675754",
"6. c #6B645C",
"7. c #656158",
"8. c #776658",
"9. c #7F755B",
"0. c #625F61",
"q. c #656463",
"w. c #6B6564",
"e. c #6D6B66",
"r. c #6B6969",
"t. c #676668",
"y. c #756E65",
"u. c #716D6C",
"i. c #786A65",
"p. c #7A7168",
"a. c #756F70",
"s. c #7B7573",
"d. c #797777",
"f. c #816859",
"g. c #8C755B",
"h. c #95785B",
"j. c #906F5E",
"k. c #A37C5D",
"l. c #88746A",
"z. c #867666",
"x. c #937A67",
"c. c #807673",
"v. c #847E7B",
"b. c #877C75",
"n. c #806C63",
"m. c #98886A",
"M. c #8A847E",
"N. c #878078",
"B. c #98887A",
"V. c #9B927D",
"C. c #9C926F",
"Z. c #A68C77",
"A. c #B39A7B",
"S. c #A6917E",
"D. c #817F80",
"F. c #8C8582",
"G. c #898684",
"H. c #938B88",
"J. c #97948A",
"K. c #959694",
"L. c #A69788",
"P. c #B49984",
"I. c #A79D95",
"U. c #A58F84",
"Y. c #B8A287",
"T. c #ADA394",
"R. c #A9A59C",
"E. c #BBAB9C",
"W. c #B7A998",
"Q. c #BCB39B",
"!. c #A9AAA7",
"~. c #B5AAA0",
"^. c #BBB6A4",
"/. c #B9B5AB",
"(. c #BCBCB8",
"). c #C3A486",
"_. c #C7A98D",
"`. c #C5AB96",
"'. c #CAB99D",
"]. c #D7BB9B",
"[. c #C6B8A5",
"{. c #D5BDA5",
"}. c #D4BBA9",
"|. c #C5BDB5",
" X c #C3ACA6",
".X c #D8C4AA",
"XX c #DFD7AD",
"oX c #D8CBB7",
"OX c #DAD5B7",
"+X c #C9C2AC",
"@X c #E4C5A9",
"#X c #E7CCB5",
"$X c #E6D7BC",
"%X c #F2D6BC",
"&X c #F7D9BB",
"*X c #E0D7AE",
"=X c #ECE5BB",
"-X c #F4EDBF",
";X c #CBCCC6",
":X c #DAD6C8",
">X c #DBD8D4",
",X c #DACDC7",
"<X c #E2DDCD",
"1X c #E8DBC9",
"2X c #F5D6C2",
"3X c #E6DCD3",
"4X c #E9CDC1",
"5X c #EBE3C2",
"6X c #EBE5C8",
"7X c #F7E6CA",
"8X c #F4F4CA",
"9X c #F8F5CC",
"0X c #F6F3C5",
"qX c #EBE3D2",
"wX c #EDE7DA",
"eX c #ECEBDD",
"rX c #E9E7DB",
"tX c #F2ECDC",
"yX c #FAEAD4",
"uX c #FDFBD3",
"iX c #FFFCDB",
"pX c #F7F3D8",
"aX c #EDECE4",
"sX c #EDEDE9",
"dX c #E7E4E2",
"fX c #F2EDE4",
"gX c #F3EEEA",
"hX c #EEF2EC",
"jX c #F4F1E6",
"kX c #FAF4E6",
"lX c #F5F2EB",
"zX c #FAF4EC",
"xX c #FFF9ED",
"cX c #FFFAE7",
"vX c #F6F4F1",
"bX c #FBF5F2",
"nX c #FCFAF3",
"mX c #FBFBF8",
/* pixels */
"lXkXaXzXgXmXbXbXnXxXaXjXlXbXvXvXgXzXgXlXlXlXlXlXlXbXlXlXxXlXgXlXlXvXdX0.$ E $ I.cXaXvXvXlXfXzXwX",
"jXaXlXfXgXgXgXgXaXjXjXjXzXlXbXgXvXgXlXlXlXzXlXzXlXgXnXjXaXlXzXaXsXaXq.  M R R :.wXlXhXvXlXjXjXfX",
"lXxXlXlXbXbXzXgXkXhXhXzXaXaXlXaXlXlXlXlXlXlXlXzXbXgXaXlXlXsXlXnXfXv.  D K n.x.y <XnXhXhXhXkXjXjX",
"aXhXzXlX3X,XfXmXxXhXxXhXvXlXgXlXlXzXgXlXlXlXlXlXlXlXlXmXlXjXaXlX!.# m % R B.).8.^.nXsXsX;X(.:XhX",
"gXbXkX|.R y R I.3XlXhXvXsXbXgXzXlXlXlXlXgXzXlXlXxXaXgXlXzXnXgXrX3 5 - B l.{.{.m.L.jXsX!.] # R.eX",
"gXbX3X/ * R E . % /.hXhXlXgXkXdXlXgXlXlXlXlXzXlXsXlXlXlXlXaXvXH.  m - 3.`.&X&XY.z.>XK.  X   q.:X",
"vXbX|.* f.h.f./ ^   K.vXmXaXbXkXlXlXlXzXlXlXzXvXnXzXzXnXlXmX,X  k 8 X K P.&X]._.z.R.8 @ k 0 W ;X",
"dXnX[.a Z.Z.x.1.D W   D.vXsXbXbXzXgXvXgXlXlXlXlXaXlXaXlXlXaXs.  k e #.U.Y.)._._.8.B   9 =   H (.",
"kXzXE.1._.).h.Q K B A O t.!.|.>XvXsXvXvXvXsXhXvXlXlXvXhXnX;X  k , e b.[.].h.).`.l.. 9 2 3 0   !.",
"fXkXL.h.].@X_.m.3.i , C o o w a.(.sXsXhXmXnXnXhXlXdXhX:X!.q.  9 <   - 3.x._.P.}.i.X 6 @ + 5   K.",
"jXcXY.m.].&X.X_.L.U 4 c c G f   k K.>XdX;XR.J.H.e.+.]     o 8 3 , d c.W..X7X%X`./   + @ # X   j ",
"kXkX'.f.Y.@X&X%X}.i.P e w l b e k O q.0.    # # #   # 8 v k @ 9 4 l 7.W.{.{.`.`.e X # 2 # # : o ",
"jXkXoXf.A.A.2XyX}.l.J f t w B I g s     j A D D D ! | 9 @ 9 3 6 4 A . L.#XS.:.3.X.  , @ @ . o > ",
"zXxX1Xz.Y.Y.@X@XP.R y * t h B K 7 d s x _ $.%.e.*.=.r.Z   2 o 6 4 m t O.W.}.`.R O 7 + 2 @ 3 o o ",
"lXkXzXW.Z.*X&X@X#X`.l.n.E P 5.r O 2 3 c  .=.q.0.] r.=., 9 > o 7 & < l . l.4X XT Z :     . O O > ",
"fXfXxXoX) .XyX7X%XZ.1.f.:.8.i.4 > 6 , 9 A =.D.G.u.u.G O , 6 O > 7 & q o 5.L.>.. x     + X o , o ",
"gXxXxX:XQ k.U.2X@Xy j.U.z.#.6.5 6 2 2 9 H } e.G.a.-.$.s 9 9 s j 0 @ = @ b   q 8 @ @ +     + @ # ",
"fXnXjXtXP.Q f.`.@Xk.j.f./ U W 3 2 6 2 8 H A A %.%.$.G j C 8 G ]   6 j 3 & 5 m 8 k 8 : + @ +     ",
"aXgXzXxXoX$ U.4X_.k.J :.8.T Y 8 + 2 9 v 3 z H z -._ 2 G ;.%.q.r.x k : , 7 d 9 O j s o o > @ . X ",
"gXxXaXlX1X8.a I.@Xk.O.t O.X., 9 9 6 x v =.{ D u G G + W d.r.o.&.C  . .v e v x 6 > C x     @ # . ",
"vXgXgXjXkXW.  U k.x.$ f t v > 6 9 9 A ` 4.a.r.x G -.x 7 %.s.w.2.q.$. .} Z Z c x _  .x o o o     ",
"aXvXlXeXxX|.% o.I.R $ g w 7 6 9 s  .$.o.v d.r.c C ;.A 6 & | o.` ] A v k l ` } Z _ C 2 o o     + ",
"lXhXeXtXmXT.. N X.r Z g 7 7 s 6  .-.4.$.A } _ 6 C _ _ x , . - l b =   # m ~ %.F o s s : o o O O ",
"gXjXjXkXtXy.  8 * r g _ d 7 d 7 m ` [ e f < d 9 x G G c 7 w t - . ,.J.J.K V ^ H 6 > > o o     @ ",
"lXtXwXjX1Xe u 5 4 X S C d Z 5 l i = . b b q - 5 j C $.$.u = 4 % ^.pXpX6XOX,.p W u 0 + 0       o ",
"kXfXkXjXqX,.  3   S F A f e p . . ; ^ # . i & 5 z $.r.7.H u . V.uXiXuX=X=X+X#.- 3 2 0 0 o   o o ",
"wXkXfXqXqXM.D ! 4.t.=.2 ' ... ,.+XOX$XQ.(   p 5 z *.M.G.*.b . E.iXuX0X-X=X=Xz.! # & X #     o + ",
"fXtXyXxXqXy.{ r.t.7.a.| 0...3.7XuX8XiXiXOX^ V a # @.J.G.#.p # oXuX0X-X=X=XQ.8.6.  & 0 # #     > ",
"kXeXcXeX4X^ 3 r.| 0.G.7.*.&.+XiX9X8XuX5X5XE.; U $ P v.0.i p # Q.iX=XXX=X5Xg.z.4.  , @         o ",
"hXeXrXpXW.  D D k d q.q.X.9.7X9XuX9X8X=X5X[.a / r t ..' 3 u u a +X5XXXXXm.V.i.. o , @ #       o ",
"aXeXpX:Xp.  e 5 9 @ + q.X.a Q.6X0X8XOXOXpXL.r O.r f d d 7 3 z   . 9.C.C.W.L.P . 1 O + X     o O ",
"eXeXrX^.. e 7 9 0 u j u.X.a 9.oX8XOX5X8X#X$ E :.h f f , < 9 @ S ,.,.W.Q.T.#.. 7 1 O o +     O O ",
"eXqXrXJ.  i & = 3 e l o.v.M I ,.`.oXoX X<.3.3.>.r r f < 7 1   ` F...s.M.b . 9 # , O O     . O @ ",
"eX6X<X7.& e 3 7 3 8 m z s.v...S $ L R a b.T.5.n t f < < & , 1 s d.] v A x A 9 + > O     o @ @ % ",
"eXqX(.^   k 8 4 3 l m A < 0.v.v.p.3.#.O.l.W.w.q M z 4 4 3 2 3 s o.v   & e k O 6 @ O     X , & X ",
"6XeX^.# e 7 7 7 7 7 z D Y v ..F.I.B.7.X.i.R.H.o.! & & 4 @ 3 3 5 e 5 3 3 @ X o 6 @       , 3 < X ",
"qXeXI.  e 5 9 7 9 5 z ] o.] A o.b.b.p.b.6.+.M.s.{   5 8 = @   3 7 & 3 % O @ O @ @     O < 7 = @ ",
"6XrXM.. l 7 9 9 9 5 3 v D | o.[ s.u.~ N q . y.M.N b @ % - S D e X &   & , + @ , O O   @ 3 6 3 % ",
">X3Xy.  l 9 9 d s 8 5 0 @ v ! Y &.6.Y . e . ..4.w [ - b.H.F.s.q w 3 & 7 3   @ O O O + & 3 4 & & ",
"qX:X*.X w e d g 8 x k A F A l e z 5.o.& i 5 & 4 4.i.r H.s.i.....6.  8 7 9 o       O & , 3 3 & & ",
"wX|.i X w 5 7 7 s z A D Y D e l     l d Y ] Y % c.w.. . - . q M.@.  e 7 o 3 + @ o O @ 3 7 7 = & ",
":X[.. q 4 7 c d 7 v A *.I o.u.d.w.| v & 2.u.e.[ &.s.M i M . 2.e.X 3 3 k @       + O # @ 7 5 w 5 ",
"tX~.. q & < d 7 8 Y S r.Y 2.w.o.] A m # ] r.r.%.*.u.e.| A 5 7.{ 5 3 8 l 9 3   O o o   o < 7 5 # ",
"wXI.. e % d 7 w e Z A M e . . - 3 A A l 5 ] a.=.l v +.+.z 5 N H & % & @     9 3     + = 3 3 4 5 ",
"<XW.  4 - r d e r < M ' T Y B l m c m 3 8 3 F F 8 z W A A G | D < 3 @ 4 7   6 k 8 o   @ < @ & = ",
"<X^.% * e & f & < e l l / O.:.T P w   m m e r 4 5 l A u N Y A N 3 & @ @ 3 9   o o } A   3 7 # = ",
":XQ.X ; * q 4 4 w r t K M U O.X.T * < P M Y T m 4 4 8 d 7   @ G & @ . 3 @ & @ +   8 k 3 & 3 4 & ",
"OXT.% = & & t 7 r r h K n n T R P M T P t O.0.T l f l w d , , s 8 e 8 3 & + 7   o o   @ 7 7 & 4 "
};
