/* XPM */
static char *af22ee42ded4441bdb69c1fa49af1cffDmwj49TaAY5JR36L[] = {
/* columns rows colors chars-per-pixel */
"64 64 256 2 ",
"   c #3D110C",
".  c #390D09",
"X  c #282912",
"o  c #460C06",
"O  c #4A140C",
"+  c #54140D",
"@  c #4B1C1C",
"#  c #471715",
"$  c #551A16",
"%  c #5A0C07",
"&  c #661A16",
"*  c #731813",
"=  c #58231A",
"-  c #47231E",
";  c #66251A",
":  c #672819",
">  c #6A2519",
",  c #77241C",
"<  c #7B321D",
"1  c #4D1E21",
"2  c #521E20",
"3  c #4E2223",
"4  c #532324",
"5  c #552529",
"6  c #59262A",
"7  c #5B2B2D",
"8  c #582928",
"9  c #5E2D31",
"0  c #5C3333",
"q  c #503628",
"w  c #662928",
"e  c #782A25",
"r  c #66332B",
"t  c #7C3321",
"y  c #77352A",
"u  c #622E33",
"i  c #643234",
"p  c #6B3534",
"a  c #653638",
"s  c #6B3C3C",
"d  c #693938",
"f  c #743D3B",
"g  c #763A36",
"h  c #7F2D31",
"j  c #6C413E",
"k  c #7B423D",
"l  c #76413C",
"z  c #7A4A2C",
"x  c #524E35",
"c  c #6D3E42",
"v  c #6D4242",
"b  c #734443",
"n  c #7A4946",
"m  c #7C4C4B",
"M  c #774747",
"N  c #7D514D",
"B  c #7D4F51",
"V  c #7D5655",
"C  c #66694B",
"Z  c #881E1A",
"A  c #85241D",
"S  c #88331C",
"D  c #94351D",
"F  c #882823",
"G  c #972A26",
"H  c #883A25",
"J  c #8B3A38",
"K  c #97382D",
"L  c #A52B26",
"P  c #A9322D",
"I  c #B4342F",
"U  c #A93733",
"Y  c #B83A36",
"T  c #BA2C24",
"R  c #D6271B",
"E  c #CA251A",
"W  c #E12C1E",
"Q  c #C82C22",
"!  c #D92D22",
"~  c #C8342B",
"^  c #D7352A",
"/  c #C33B35",
"(  c #CA3D37",
")  c #D83C33",
"_  c #E22E21",
"`  c #E33124",
"'  c #EC3A2D",
"]  c #E83528",
"[  c #F1392C",
"{  c #EA3E32",
"}  c #F53E31",
"|  c #D11F14",
" . c #9B462A",
".. c #984429",
"X. c #83473D",
"o. c #8C5334",
"O. c #A54C2D",
"+. c #A84E2D",
"@. c #A44727",
"#. c #A94936",
"$. c #AE5332",
"%. c #B65936",
"&. c #B44935",
"*. c #93643C",
"=. c #BD613D",
"-. c #C6433C",
";. c #D3463D",
":. c #F44335",
">. c #F8473A",
",. c #E94539",
"<. c #854A44",
"1. c #8A4D45",
"2. c #844945",
"3. c #82524E",
"4. c #8C544A",
"5. c #97594E",
"6. c #96584D",
"7. c #835453",
"8. c #855954",
"9. c #8A5A54",
"0. c #845B5C",
"q. c #8B5C5B",
"w. c #875657",
"e. c #955C57",
"r. c #8E4847",
"t. c #A64B45",
"y. c #B44A45",
"u. c #A45849",
"i. c #A95B56",
"p. c #B65A57",
"a. c #B7504F",
"s. c #8D6159",
"d. c #92635C",
"f. c #936556",
"g. c #986D47",
"h. c #A86356",
"j. c #B16B4E",
"k. c #895E61",
"l. c #8C6363",
"z. c #896567",
"x. c #936563",
"c. c #956965",
"v. c #936B6C",
"b. c #9B6C6B",
"n. c #9A6964",
"m. c #9C726D",
"M. c #946E71",
"N. c #9C7373",
"B. c #997678",
"V. c #A76A67",
"C. c #A5756A",
"Z. c #A37572",
"A. c #A57A75",
"S. c #AB7D7A",
"D. c #A67B78",
"F. c #B87370",
"G. c #C84A45",
"H. c #D74B45",
"J. c #C9514C",
"K. c #D6524D",
"L. c #C95A56",
"P. c #D65A54",
"I. c #FD4E42",
"U. c #F74D42",
"Y. c #E75855",
"T. c #F55C57",
"R. c #EB5046",
"E. c #C46B49",
"W. c #C8625C",
"Q. c #D36E57",
"!. c #F0635C",
"~. c #C76B68",
"^. c #D66865",
"/. c #D67775",
"(. c #C97671",
"). c #E86765",
"_. c #F96D66",
"`. c #FA726C",
"'. c #F97976",
"]. c #EB7573",
"[. c #AD834F",
"{. c #AC817D",
"}. c #A5817D",
"|. c #B38278",
" X c #D18E5C",
".X c #E1845D",
"XX c #D18679",
"oX c #E98A67",
"OX c #DBB16C",
"+X c #EBC276",
"@X c #EFC679",
"#X c #F2C97A",
"$X c #F0C779",
"%X c #A17C83",
"&X c #AD8582",
"*X c #A98988",
"=X c #B38A85",
"-X c #B48C8A",
";X c #B58885",
":X c #B9938D",
">X c #BC9592",
",X c #B69898",
"<X c #AD9094",
"1X c #B3A299",
"2X c #B89EA1",
"3X c #BDA4A4",
"4X c #BCB2B2",
"5X c #9E8385",
"6X c #C39A96",
"7X c #D99997",
"8X c #D28986",
"9X c #FA8A89",
"0X c #FB9796",
"qX c #EE918E",
"wX c #C7A29E",
"eX c #D6A19E",
"rX c #ECA19E",
"tX c #CAA9A6",
"yX c #D6AAA7",
"uX c #D5B1AE",
"iX c #C8B4B3",
"pX c #D9B8B5",
"aX c #C4AEB1",
"sX c #E3AAA9",
"dX c #FAA6A6",
"fX c #E4B8B6",
"gX c #FBB9B6",
"hX c #F0B2AE",
"jX c #E5C3BD",
"kX c #F9C7BD",
"lX c #D8C2BC",
"zX c #DBC8C7",
"xX c #DED2D3",
"cX c #DBCED0",
"vX c #E4C6C1",
"bX c #E9CAC5",
"nX c #ECCDCA",
"mX c #E8C8C6",
"MX c #FCC9C8",
"NX c #E4DBDC",
"BX c #E8D7D6",
"VX c #F2D9D8",
"CX c #EDD1CD",
"ZX c #F6E1DF",
"AX c #E8E1DF",
"SX c #ECE5E5",
"DX c #F5E4E3",
"FX c #F6EBEB",
"GX c #F9EDED",
"HX c #F8E8E6",
"JX c #F4F1F2",
"KX c #FBF3F4",
"LX c #FFFEFE",
"PX c #FBF7F8",
"IX c #F7EFF0",
"UX c #F4DFE0",
/* pixels */
"7XW _.LXJX~ } h.LX8X] ^.PX2XFXmXR hXLXsX` ' iXLXT R nXLX,XcXLX/.] H.xXGX| E IXLX%XGXLXP.[ L.FXmXR ~ LXLXB.PXFX;.' (.PX7X] J.LXKX",
"yX] _.LXGX( I.h.LX7X:./.KX3XSXmX` gXLXsX_ T.tXLX~ ` mXLX,XcXLXXX] P.cXGXR Q GXLXB.IXLXP.:.~.SXmX] ~ LXLXM.PXFXH.>.XXKX7X:.J.LXPX",
"yX] _.LXGX( I.i.LX7X:./.KX3XSXnX_ gXLXsXW !.2XLX~ { mXLX,XcXLXXX' /.zXJX! ^ GXLXB.JXLXL.>.(.SXmX{ / LXLXM.PXGX;.R.|.KX7X>.J.LXPX",
"yX' _.LXGX( >.i.LX8X!.^.KX3XSXnX] kXLXuX_ T.2XLXY R.mXLX,XBXLXXX' ^.zXGX( ^ JXLXB.JXLXL.:.~.SXmX,./ LXLXv.PXJX;.U.F.KX7XT.G.LXLX",
"yX' _.PXFX;.I.u.LX7X:.^.KX3XNXCX` MXLXuX_ Y.:XLXT W mXLX,XBXLXXX' P.lXJXQ R JXLXM.JXLXL.:.W.SXmX^ Q LXLXv.LXKX;.U.F.JX7X' -.LXLX",
"yX' `.PXFX;.>.t.LX7X:.^.KX3XNXVX` MXLXuX_ Y.-XLXT ` mXLX,XBXLXXX[ K.pXJXE R JXLXM.KXLXL.:.L.AXmXR Q LXLXz.LXKX;.I.p.KX7X] &.LXLX",
"sX' '.PXFXH.>.t.LX7X:.^.KXaXNXVXR gXLXfX` Y.;XLX~ ` fXLX,XBXLX8X[ K.iXJXQ ! IXLXM.KXLXL.:.J.NXnX! Q LXLXz.LXPX;.I.p.JXeX' &.LXLX",
"sX' '.KXFXH.>.t.LXyX:.^.KXaXBXVX! MXLXfX_ R.=XLX~ _ fXLX,XBXLX8X[ J.iXJXQ R GXLXM.KXLXW.>.a.NXnX! Q LXLXz.LXPX;.I.p.JXsX] &.LXLX",
"fX' '.KXFXH.>.u.LXyX:.^.KXaXBXVX! MXLXfX` R.*XLX/ ] fXLX,XNXLX8X[ G.iXKX! R GXLXv.KXLX^.>.y.NXnX! Q LXLXz.LXLXH.I.i.JXsX] -.LXLX",
"fX{ _.KXFXK.:.u.LXyX:.P.KXaXxXVX! MXLXfX` R.*XLX/ ` fXLX,XNXLX8X[ G.iXKX^ ! FXLXv.PXLXW.>.y.NXnX! Q LXLXz.LXLX-.I.u.JXsX] -.LXLX",
"fX{ T.KXFXK.>.i.LXyX} P.KXaXcXDXR gXLXfX` R.*XLX/ _ fXLX,XNXLX8X[ G.iXKX^ R FXLXv.PXLXW.>.y.NXnX! Q LXLXk.LXLX-.I.u.JXsX_ / LXLX",
"fX{ !.GXFXK.:.i.PXsX`.K.KXaXcXDX| hXLXfX` R.*XLXG.,.fXLX,XNXLX8X[ G.iXJX;.^ HXLXM.PXLXW.>.#.NXnX;.Q LXLXk.LXLX-.I.u.JXsX' / LXLX",
"fX{ _.GXFXK.:.i.PXsX:.P.KXaXcXDXR gXLXfX` R.*XLXG.{ fXLX,XNXLX8X[ G.iXIX) ! DXLXM.PXLXW.>.#.NXCX{ Q LXLX0.LXLX-.I.u.JXfXR./ LXLX",
"fX:._.GXFXP.:.i.KXfX} K.KXaXcXHXR hXLXfX` R.*XLXG.] fXLX,XNXLX8X[ -.iXJX^ ! UXLXM.PXLXW.>.#.xXCX! Q LXLX0.LXLX-.I.t.JXfX` / LXLX",
"fX,.!.GXGXP.>.p.JXfX{ K.KXaXcXHXR hXLXfX' R.&XLXG.' fXLX2XAXLX8X} -.iXJX^ ! VXLXB.LXLXW.>.#.NXCX! Q LXLX0.LXLX-.I.t.JXfX` / LXLX",
"eX{ T.nXnXP.>.&.BX6X{ J.VX,XpXVXR rXDXyX{ ' {.LXJ.' sXGX,XxXKX8X>.~ aXDX) ^ nXGXM.GXKXL.I.T BXCX! ~ KXPX0.LXLX-.I.U JXfX] / LXLX",
"XX! ~ |.eXG.! W.yX1.>.J.wXN.;X6X^ p.6XF.^ ^ V.N.I :.(.6Xb.Z.uXF.` ~ 6XS.) { eXpXx.>XpXy.[ I wXe.{ ^ wXyXM tXpXY } K tXe.' / pXfX",
"i & G r r = X.# @ @ F A 7 7 7 7 , > j l + e 9 7 & L y i 7 p n <.> e 7 5 e ~ f b i n s.r.F y M i G I w.w.u m b.J A X.B p / I 0.q.",
"5 5 3 4 @   a # 6 4 5 7 1 . 6 7 4 u   @ 4 7 4 . @ 4 @ 4 @ 1 @ # 4 # @ = # # @ # @ # @ 4 5 # 4 @ 1 # # @ # # # @ # O # @ 1 # @ g.",
"0 u 5 9 4 = $ p 6 5 9 u @ . 3 9 5 i   @ 6 u 6   4 i 7 u 7 9 u 7 i 7 7 u 7 9 9 5 u 3 a # & @ & Z & # 4 4 # @ 3 u 4 @ w & F 6 M j.",
"B 9 2 A G G P.-.&.K 8 @ U e F @ 4 a   @ 6 u u @ 9 u 7 u 9 9 7 6 u 7 7 u 7 9 7 4 u 3 5 w I o F P ,   : 1 # A 4 u $ O w A Y 4 M C.",
"N.5 r.9X).K ~.y.'._.J p.H.t.J.J.# F O , = 5 u 4 d 9 m c s i u 7 c s s a i i i 9 5 5 + L , . G Y , A P 4 # / $ @ , e w G G.@ B C.",
"N.p p.MXG.Y Y MXMX9Xp.tXT.p./.i.P J.& T.L.J 4 a M 7 >XD.A.A.C.c.;XtX6X-X-X6XtXtXN.5 ; ( G.o L G., G G & * H., o P -.& / P.@ w.C.",
"N.g &X/.!.t.'.).gXhXU 3X'.p./.g 0X'.w 0X9XiX4 a m 6 wXuXuXuXuXuXuXuXuXtXtXtXuXtXv.5 w H.Y.O G.Y.F I G & G Y.#.+ T.( > Y Y $ 0.C.",
"A.r &X0XdXt.'.'.]._.~.3X0XF.8XJ gX`.w 0X`.rXa 0 m 5 {.i 6 5 7 6 5 5 5 4 4 4 1 M l.5 $ -.L.O P.].J I Y > F H.U + K.^.w Y 8X@ v.|.",
"D.p w 9XH.#.K.'.].`.~.4XkX;X~.J MX9Xp dX_.rXs 0 B 5 ;X9 q.q.7 M b 7 s s i b i M x.5 & ).dX4 J.gX4.G '.s * ].V.+ ).gX& Y.).# B.|.",
"%Xp H ( rX* Y ).rXMXp i.gXy.G.h VXgXv HX9XrXs 0 7.4 ;X9 i a 9 u 9 i j j u 9 6 M x.5 & ).].$ J.9XJ Y '.w G `.p.+ `.0X& K.Y.# v.C.",
"&Xk 4 Y L G P Y L.J.. K R.* G.> MX9Xw oXMX9Xi 0 7.3 ;Xa 7.q.s f r.s n.q.s m i b x.7 $ K.^.$ P '.J P Y.e A !.y.+ T.'.& K.Y.# x.C.",
"&Xf 8 A * G I Z $ @ @ = ].* J.* P.H.* T.9XfX& 9 7.@ ;X9 6 & 4 t.K.3 - - # 3 @ M b.u $ L.Y.$ G Y.F L ).y A K.a.+ Y._.$ L I # x.C.",
";Xf 1.7 # 8 L.Y.y 2.4 + Y Z ~.& a.Y & `.!.dXv 7 w.@ {.9 w /.i.^.qX; x C q a -XM b.u $ G.K.w & / , * I 4 , ( G O I P # o O @ l.n.",
";Xf <.<.i g c.J p <.p 6 + % 3X  J / & `.0Xk c 7 w.# {.7 u a.h t.j.= C B.i ,XBXM b.u 2 G P $ O + # # + # $ * & O + + 3 7 i 7 x.f.",
";Xp k f f f w @ 4 k 2.i i   t.4 # A & `.MX. 4 8 w.@ n.M j b g g p i p p d p u m x.u 5 # & 6 7 7 7 5 7 7 4 = 4 7 u u 6 s 1.X.x.f.",
"-Xu s x.w.7.3.m m M p f 2.k g k p 3 # P ).  u 8 q.# i d.S.A.Z.b.b.b.b.n.x.x.x.7.M l 7 6 7 6 n 2.j u l <.p <.f k <.1.7 s <.X.b.f.",
":X6 m 6XwXtX-XZ.s.N 7 f <.<.1.1.1.f p $ O 7 9 6 q.@ 4 5 6 6 6 5 5 5 5 3 3 3 4 3 7 2.i 9 n p k 2.7.M k 4.M <.k 2.1.1.a m 1.X.b.f.",
"pX6 M =X{.{.A.s.&X7.i i p u 9 9 7 7 7 6 6 7 i 7 x.u u u u u u u i i u a <.p i i u 1.1.p 1.f i u i i i i 7 i p i p i p u g f b.9.",
"zXs M pXuXyXq.A.yX9.b p n.3.7.d.s x.9.3.n.b |.i b.2.f f f f f u b 2.u M 1.i N 3.i 1.1.p <.g w.=X&X{.m.c.b.f w.N.N.Z.n.d.3.i N.9.",
"zXs M ;X{.=X=Xb.:X9.l p D.w.{.3.s S.b b.7.B Z.0 v f 4.4.1.4.4.1.1.2.s i i 7 3.m 7 i s f p u 9.tXwXtXwX6X>Xf m.:X-X-X{.A.n.a Z.9.",
"cXM b i s s s j j s d i 3.7.M m w.3.9.M 3.M N M m 6.5.5.5.5.5.4.2.f 7 S.pXtXtXtXuXlX{.f Z.x.7.A.m.Z.Z.C.C.b x.6X>X6X>X>X6Xi -X9.",
"cX7.uX*XB.>X:X-X=Xn.{.N.x.d.c.a s.M m m 7.q.x.c.S.X.5.5.5.5.5.5.b Z.b yXIXKXKXJXJXJXpXc.uXA.7.tXwXwX>X&X}.M q.{.D.A.m.l.c.i &X9.",
"zXw.pXX 0 *X;XM l.&X=Xv.fXfX:Xm 7 f q.9.3.4 p s r l 5.5.5.5.5.4.7.uXM yXHXDXZXVXnXbXuXb.bX&X3.:X&X=X-X-X-XM s.uXuXuXtXtXwXa &X8.",
"zXw.V ,X1Xx (.t.M w.MXfXM vX9.5.c.8.N.v.l.# i {.i l 5.5.5.5.5.6.7.uXm >XyXtXyXpXnXvXwX&XnX:XM Z.;X{.&X{.b.f M C.A.Z.D.{.d.i -Xw.",
"zX7.0.C C q V.r.e.m r.J B kXw u.3.A.S.&X=X=X:X7 d.r 5.5.5.5.5.6.m nX-Xq.c.b.l.l.q.l.>XCXmXfX0.B m b s a i c.i 9 u i i s i x.-X7.",
"zXq.0.:XtXj p.Y.w.w.).L.B kXy u.w.8 7.3.3.3.m 3.b.y w X.5.5.5.6.n VX>XfXv.M CX-XwXB 0.vXnXZ.q.b.m.A.{.&X=XA.A.D.;X{.A.A.m.vX-X7.",
"pXN.v.q q 3 p.K.7.7.D.}.l.kXy j.j d.Z.b.C.C.Z.s.m o...p 4.4.4.1.b BX&X-Xs.7 wXl.c.x.c.vXZ.; 6.r.r.J J J o & + 2.L 2.M 5., g }.7.",
"iXb.l.6 Z.0 p./ r.V.i i CXhXy u.s i.J.V.h.p.V...N 5.O.  $ $ = = 8 nXtXm w.C.b.q.9 3.N -Xr > & G I ).'.dXsX .# 0X7X0XMX8Xe < l.7.",
"iXN.pX;Xq.;Xs.M q.6X;X;XvXfXy u.0 pXL ]./.qX0XL.N h...$ : : : : 8 BX,Xa b B 7.w.i f l x.r t + $ % G ^.P.U * o Y.0X0X0X^., ..z.7.",
"aX%XVXVXVXpXwXtX,X,X,XuXmXjXy j.r CXdX0X^.9XF.3Xn j...O : : : : = nX:X6XnXmXpXzXyX>Xa Z.y H + t.p.p.p.i.% & O P K.P.).L., ..z.7.",
"tXB.SX0.w.0.VXtXn c.d.q.tXkXy .X< 9.s.e.e.f.f.4.Q.oX..O : : : : = zX,XA.pXtXwX6XuX6Xb ;XX.H > + L Y '.gXhX( & + % % % & S  .z.w.",
"3XB.B.&X}.N.l.B.e.-X0.M 0.nXg .X$.O.+.+.+.+.+.$.Q.oXE.O : : : : = zX,Xn.tXwXtXtXwXZ.s ;XX.H + o o * Y L.^.K , $ L.7XL., D $.V 0.",
"2XB.0.5X<X1XM B.d N -X-X0.nXp Q..X.XQ.j.=.=.=.E..XoX%.O : : : : = zXtXb Z.S.S.;X;Xm.u ;XX.< ~.~.~.F.S.a.& & G 9XdX9XgXgXr.$.V 0.",
",XB.0.l.v.N.M B.7.M.B.c.0.nX2..XoXoXoXoX.X.X.X.X.X.X%.O : : : : = iXCXS.n m n n M q.x.wX1.> & Y '.dX0Xy.S O P K.9X9XdXqXJ $.V q.",
"<XD.0.c.d.d.v B.<.e.3.m 0.nXu.$.E.E.E.E.E.E.E.E.E.Q. .$ : : : : O <XpXB V 0.0.l.l.x.i uX<.H O * L.~.W.S D > O P J.^./.a.S $.0.q.",
"<Xq.N -X,X,Xk 0.l.2X,XD.0.DXl +.O.O.O.O.O.O.+.O.O.=...$ : : : : O ,Xm.N b.9.m m g p 4 tXh.+.@. .D S S @.@. .D D S < H ..O.$.V q.",
"<X7.b ,X3X3Xd M b <X*Xz.0.jXf +.+.+.+.+.+.+.+.+.O.=. .o + O O O o ,Xc.m s d b 7 7 b 7 -X6.H H H ........ . .O.O.O.O.O.+.$.= 9.k.",
"*X7.M >XtX-Xp s 4.tX>XA.B 6Xf +.+.+.+.+.+.+.+.+.+.%.H g.OX X X Xz -Xb.5 3 M m 7.7 3.p n.X. . . . . . . . . . .O.O.O.O.O.+.H V l.",
"*Xw.b D.x.{.p s w.tXuXb.s {.k O.+.+.+.+.+.+.+.+.+.%...[.#X+X@X#X*.-Xb.b m 7 n.w.N m 7 b.g H H H H H H H H H H H H t t H H , V v.",
"%Xw.s {.;XS.p s 4.S.n.Z.s {.k O.+.+.+.+.+.O.O.+.+.%...[.#X+X+X@X*.<XC.M 3.c.d.d.6 s i A.g t t t t t t t t t t t t < < < t > V M.",
"%XZ.b d d r s s.w i i r N {.1.O.+.+.+.+.+.+.+.+.+.%...[.#X+X+X@X*.*X>Xb b M M M m M m S.r ..+.+.$.$.$.%.%.%.%.%.%.%.%.$.$.< N B.",
"<XpX6XD.S.S.S.-XS.D.S.A.;X-Xu.O.+.+.+.+.+.+.+.+.+.%...[.#X+X+X$X*.*XvX;XA.A.A.A.A.A.D.S.x.w O $ $ $ $ $ $ & & & & & $ = = k uXB.",
"*XmXmXpXpXpXpXjXpXpXpXpXbXnXh.O.+.+.+.+.+.+.+.+.+.%. .[.#X+X+X#X*.5XmXuX6X6X6X6X6X6XyX>X{.b.d.d.e.9.9.e.d.q.9.9.d.d.b.c.c.:XnXD.",
"*XnXnXnXmXmXbXbXbXbXmXbXnXnXh. .@. . . . . . . . .+...[.#X+X+X#Xg.B.bXbXmXmXmXmXmXmXmXvXpXjXjXjXjXjXjXvXvXjXjXjXvXvXnXnXnXnXnX&X",
"B.vXBXBXBXBXBXBXVXVXVXVXVXVXx.*.j.*.*.*.o.o.o.o.z z o.+X+X+X+X#Xg.M.JXJXGXGXFXFXHXHXHXDXDXDXDXDXZXZXZXZXDXZXDXHXHXHXHXHXHXFXFX*X",
"c s.w.q.s.q.0.9.9.w.8.7.8.8.N OX+X+X+X@X$X#X#X#X#X#X#X+X+X+X+X#Xj.M N.Z.A.D.D.D.A.D.D.}.}.}.}.}.*X*X*X*X=X:X>X:X:X:X>X6XwXwXwXb.",
"n 9.9.s.9.9.s.f.f.f.f.f.f.f.4.OX+X+X+X+X+X+X+X+X+X+X+X+X+X+X+X#Xj.9 v M m m N N 7.N 3.8.8.8.8.3.3.N N m v M b b b v v v a s i s "
};
