/* XPM */
static char *_70e3bdc95d74834d928cc3f6dc85fe5QrKPeLJo3qAR5OGv[] = {
/* columns rows colors chars-per-pixel */
"64 64 256 2 ",
"   c #361008",
".  c #2D2D17",
"X  c #1C3521",
"o  c #372C21",
"O  c #283923",
"+  c #363826",
"@  c #182D0F",
"#  c #4A1B1B",
"$  c #55131C",
"%  c #5A151C",
"&  c #5D1A1D",
"*  c #571D1C",
"=  c #500B13",
"-  c #6A0B18",
";  c #7B0C19",
":  c #770918",
">  c #63161C",
",  c #641C1E",
"<  c #6A1D1E",
"1  c #6A1519",
"2  c #76181B",
"3  c #6D050C",
"4  c #4A251C",
"5  c #57221E",
"6  c #4F351E",
"7  c #6D211F",
"8  c #66261E",
"9  c #73241F",
"0  c #7B251E",
"q  c #7D2A1F",
"w  c #792714",
"e  c #6C351F",
"r  c #5B1C21",
"t  c #641D21",
"y  c #6A1F20",
"u  c #6D1E2C",
"i  c #761A21",
"p  c #472B21",
"a  c #592524",
"s  c #483925",
"d  c #563627",
"f  c #5F2D31",
"g  c #6C2221",
"h  c #6A2824",
"j  c #732521",
"k  c #7A2620",
"l  c #742A22",
"z  c #7C2A22",
"x  c #762B2A",
"c  c #663627",
"v  c #7A3525",
"b  c #682D32",
"n  c #763738",
"m  c #6C3236",
"M  c #284D1A",
"N  c #28671D",
"B  c #1B5725",
"V  c #1C4723",
"C  c #244626",
"Z  c #36442A",
"A  c #265529",
"S  c #325734",
"D  c #1D6C2C",
"F  c #2A6834",
"G  c #337C3D",
"H  c #2B6F32",
"J  c #1D4F15",
"K  c #47452B",
"L  c #474835",
"P  c #555034",
"I  c #6A4D32",
"U  c #4B7038",
"Y  c #68722F",
"T  c #7B3C44",
"R  c #3B7744",
"E  c #3D5344",
"W  c #505547",
"Q  c #7C454A",
"!  c #76554D",
"~  c #576A49",
"^  c #5C754C",
"/  c #537250",
"(  c #6B6E55",
")  c #6B7A69",
"_  c #5E6C63",
"`  c #850D1A",
"'  c #89141B",
"]  c #98161E",
"[  c #852A1E",
"{  c #92331C",
"}  c #901C21",
"|  c #B61624",
" . c #832D22",
".. c #8A2E21",
"X. c #862223",
"o. c #982825",
"O. c #853123",
"+. c #8B3323",
"@. c #8B3529",
"#. c #883829",
"$. c #923624",
"%. c #953925",
"&. c #9B3B26",
"*. c #943C29",
"=. c #9C3E29",
"-. c #9C3526",
";. c #883B36",
":. c #943D36",
">. c #A23C28",
",. c #B0322E",
"<. c #B1211E",
"1. c #D51926",
"2. c #C8342D",
"3. c #E63135",
"4. c #9D422B",
"5. c #94432D",
"6. c #9A4739",
"7. c #8C4938",
"8. c #A4432A",
"9. c #AB462B",
"0. c #AC4A2D",
"q. c #A3492F",
"w. c #B34D2E",
"e. c #B84F2D",
"r. c #B8522F",
"t. c #A64A35",
"y. c #B54B34",
"u. c #A9553C",
"i. c #B55132",
"p. c #BC5432",
"a. c #BA5B3A",
"s. c #BC6A3C",
"d. c #C25632",
"f. c #C45A34",
"g. c #C65D38",
"h. c #C74F36",
"j. c #C7643C",
"k. c #D2683D",
"l. c #9A5843",
"z. c #8E5152",
"x. c #A75946",
"c. c #B35C45",
"v. c #A75248",
"b. c #957154",
"n. c #AB634A",
"m. c #B56547",
"M. c #B96B52",
"N. c #AF6F53",
"B. c #966E6E",
"V. c #AA7779",
"C. c #AA6F6E",
"Z. c #995F63",
"A. c #C85247",
"S. c #EE5A4B",
"D. c #C76A42",
"F. c #D87649",
"G. c #C56B51",
"H. c #CD7A55",
"J. c #CC7D5B",
"K. c #C87757",
"L. c #D37B54",
"P. c #D27047",
"I. c #E27B4A",
"U. c #F17057",
"Y. c #F97565",
"T. c #C4756B",
"R. c #318A31",
"E. c #23801B",
"W. c #538338",
"Q. c #388843",
"!. c #3A8D4D",
"~. c #458A48",
"^. c #46944C",
"/. c #4F9152",
"(. c #6A865C",
"). c #75894B",
"_. c #55AD5B",
"`. c #758A65",
"'. c #7A9568",
"]. c #6C966E",
"[. c #59AB6C",
"{. c #6CB072",
"}. c #5A9969",
"|. c #6CC872",
" X c #5AC57B",
".X c #B78456",
"XX c #83976E",
"oX c #86926F",
"OX c #B18774",
"+X c #93A47C",
"@X c #CA865B",
"#X c #D88359",
"$X c #D18951",
"%X c #E4834D",
"&X c #E88754",
"*X c #EE9157",
"=X c #CA8563",
"-X c #D48561",
";X c #D68A64",
":X c #D98B66",
">X c #DD946A",
",X c #DB9469",
"<X c #DC9D74",
"1X c #D49C75",
"2X c #C98A71",
"3X c #E39A6D",
"4X c #E0976B",
"5X c #E49D72",
"6X c #F89070",
"7X c #E2A57A",
"8X c #E4AA7D",
"9X c #EDAC79",
"0X c #E9A674",
"qX c #E9B776",
"wX c #F2B27C",
"eX c #F2A870",
"rX c #ECC377",
"tX c #F0C979",
"yX c #A7832B",
"uX c #5D6C96",
"iX c #A77E81",
"pX c #63B698",
"aX c #55C781",
"sX c #939487",
"dX c #B8888B",
"fX c #B59696",
"gX c #AE908F",
"hX c #96AA89",
"jX c #A5AD92",
"kX c #94B0A7",
"lX c #B2ADA6",
"zX c #A59AA8",
"xX c #C49797",
"cX c #D0A68E",
"vX c #C8A6A8",
"bX c #D1B4B2",
"nX c #FBB1AB",
"mX c #EBA08F",
"MX c #88CC86",
"NX c #B3CEB6",
"BX c #F9CC95",
"VX c #F8CC95",
"CX c #FCD29A",
"ZX c #FFD99F",
"AX c #F1C297",
"SX c #F9D1B1",
"DX c #FFEDBF",
"FX c #B5D9E6",
"GX c #D3CFCA",
"HX c #F8D8D5",
"JX c #E9D1CF",
"KX c #FCEBD7",
"LX c #D1F0F8",
"PX c #FEFEFE",
"IX c #FCF8F3",
"UX c #EFF2EF",
/* pixels */
"z d.p.p.p.e.e.9.8.>.>.>.&.+.$.%.=.>.8.0.w.i.i.0.0.[ q q q q q 0 q q [ $.%.%.8.0.w.p.p.p.p.i.w.9.8.8.&.%.%.+.%.%.=.8.8.9.w.i.4.l.",
"@X#.7.#.q  .[ 0 z z k j j j j z k z  . . . . ...z q z 0 9 7 7 < < , g z z z z  . . . . . . .[ z k k k j 9 j z z z z z  .z O.#..X",
"rXqXqX.Xx.J.#XH.#X#X#X#X#X#X#X#XL.J.J.J.J.J.@XJ.H.K.H.H.L.L.L.L.L.L.H.H.K.H.H.H.K.K.K.H.H.H.#Xx x.D.L.#X#Xl.6.u.L.K.K.K.x.N.qXrX",
"rXrXtX.XN.<X<X<X<X<X<X<X<X<X<X<X<X<X<X<X<X<X<X<X<X<X<X<X<X<X<X<X<X<X<X<X<X<X<X<X<X<X<X<X<X<X1Xc M.z.b.b.b.! M.l.<X<X<X<X=X.XtXrX",
"rXrXtX.X=X8X7X7X7X7X7X7X7X7X7X7X8X8X8X8X8X8X8X8X8X8X7X7X7X7X7X7X7X7X7X7X8X8X8X8X8X8X8X7X7X8X~ O C C C O V O Z Z 7X7X8X8X2X.XtXrX",
"rXrXtXN.cXCXCXCXCXCXCXCXCXCXBXBXBXBXBXBXBXBXBXCXCXCXCXCXCXCXCXCXCXCXBXBXBXBXBXBXBXBXBXCXCXZX^ O D Q.Q.Q.Q.G D S BXBXBXBXmX.XrXrX",
"rXtX@X< n.CXCXCXCXCXCXBXBXVXVXVXVXVXVXVXVXBXBXCXCXCXZXZXCXCXCXCXBXVXVXVXVXVXVXVXVXBXBXCXCXZX^ F ~.!.Q.Q.Q.Q.^.S VXVXBXBX2X7.qXtX",
"tX@Xq 9  .6.u.u.u.x.x.x.c.x.x.x.x.x.x.l.l.x.m.c.u.m.6.x u.c.i.u.c.x.M.M.M.M.M.n.m.m.m.m.c.m.P ^.~.5 ' ; % ( U S n.n.n.n.g % n qX",
"@X+.%.z +.+.$.9 %.z z $.%.< %.%.%.%.,  ., +.+.$., +. .j  .%.=.0.w.+.=.g.a.a.6.,  ...&.z 9 [ s ^.Q.I 6X6Xj GXU S %.$. .j z k +.t.",
"z +.+.z +.$.w. .p.+.O.+.%.< &.$.$.8.g O.g *.+.$.j 9 ' ] ; ' ` - ` ; - ` - - ` ; ; '  .+.+.-.s ^.Q.( PXPXgX( ~.F %.O.=. .%.z %.[ ",
"0 O.$.j w.%.w.j 8.+.*.$.%.< =.$.$.0.g %.g =.+.%.j =.] 2.} ,.<.; ,.<.} 2.' ' ,.] o.,.9 @.$.%.s ^.Q.! IXPXfXG Q.A $. .0.*.+.7 z ..",
"+.0.%.O.w.%.w.j 8.+. .=.%.7 &.%.%.0.g =.< 4.+.=.j  .h.Y.t.&XF.; U.U.u.eXo.,.Y.A.D.*X< O.$.%.s ^.^.~ bXbXB.~.^.F -.$.0.+.8.j $.%.",
"%.i.8.+.9.$.w.g =.$.z %.%.g 8.%.%.0.g %.< 4.z %.j > S.6XV.AXvX' U.U.N.DXz.,.Y.A.cXKX3 j +.&.s ^.[.G U U ~.^.G F -.$.f.8.0.g +.=.",
" .%.%.*.+.%.8.< &.+.+.8.$.j %.%.%.9.y ..> n.0 %.j $ S.6XOXSXbX` U.6XOXHXz.,.6XA.cXKX3 j  .&.s H ^._.Q.Q.Q.H G F -.$.i.O.0.z $.8.",
"[ %.%.*.$.c v + K K K I I I I P P s o o . =.o O.z % U.mX-.I.F.' mX6Xy.6X>.y.6XA.G.6X; j $.&.s B B R ~.Q.Q.R D A -.8.*.$.0.l +.8.",
"%.%.%.*.$.d p J G H H R ~./.].{.{.{.{.{.Q.# X 5.z g o.,.> -.o.2 y.:.i >.< 2 c.1 o.o.[ z +.+.%.6 s s s s d d 6 c %.6.v v v 5.%.9.",
" .+.%.4. .p V '.hXGXNXkXlX].kXkX]./.]./ B A X v z +.O.. % # . > # . $ . 4 j . # # o  . .+.%.%.=. .%.+. .>.-.9.z . P ^.R././.I e ",
"+.%.%.+.k 4 B NXF GXsXNXhX/ GX{.GX].GX].B B X v z z c C # + B # o A $ C O 4 A 4 4 Z z  .+.%.%.=.+.%.+.z %.%.9.k X _.R.W.M U ).A ",
"+.$.O.g g p B !.}.[.{.[.B R F ~.H G ~.D B V X v g -.Z U l K U $ a U % W.P 4 ~.c #.d z z +.%.$.4.O.$.+.z %.=.0.4 Y R.@ @ @ yXI M ",
"+.4.j y < 5 A G G R.Q.Q.~.~.^.^.^.^./.R H O O h y 8.I I %.I d < I I [ U #.8 ^ v 8 I +. .+.%.%.4.@.%.+. .>.=.w.4 ).Y   = =   Y N ",
"+.8.z < , y 4 + + + O O O O O + + Z Z Z + o a < y $.=.+.g % % > %.%.+.$.$.$.+.%...2 j O.+.=.$.8.O.$.+.z %.=.8.4 N W.> <.]   R.~.",
"+. .j < , < P P % % % : : [  . .O.% & % [ - 1 y , j  .h > n x > >.v c I P P P d s o c +. .%.%.8.O.+.$.j %.=.8.5 H W.s [ ` . E.J ",
"+.9 z z  .4 NXNXo % % o.8.o.....>.2 @.2 z.v.-  .z z 0 ! b t z.> >.8 ]./._._._._.|.{.P  .O.=.=.8.O.@.$.O.%.=.9.7 . R._.N D _./.c ",
"O.$.%.$.%.4 lXlX( < , C.cXv.G.t.L.X.w.' vXxXx >.&.=.[ iXn Q B.h &.c {.|.|.MXMX{.|.MX( <  .%.%.8. .$.$.z %.&.9.g & M J R.E.N O z ",
"O.4.t.f.8.4 (.`.( ..1 GXJX2X1X2X7XX.0.' HXPXn.d.p.8.q Q a V.HXn p.v H {.MXMXMXMXMXA ~ < z +.%.9.z +.+.j %.=.0.& j & % # 4 # %.>.",
"9 +.4.f.9.+.s + #.w.[ JXKXL.-XJ.,X=.r.{ JXHX-Xd.f.p.>.z g g b O.p.#.A A S C F V X S W y h v l z 7 e.4.y ;.7.6., +.< , , < y %.w.",
"z 8.5.%XF.P.P.P.I.F.I.F.I.%X&X&X*X&X&X&X&X%XI.I.I.F.F.F.F.I.I.%XI.v Q./.].Z {.S S '.* < fXPXPXGXz.KXbXZ.UXUXUXh i.j O. .+.z $.0.",
"0 $.j @.@.O.z z j z  . . .z  . ...%.&.&.=.4.4.4.4.4.4.4.q.0.0.0.8.9 ! s c 5 d v h v  .< C.nXnXT.cXPXIXZ.nXHXHXh g.g =.%.=.O.%.9.",
"2 z g =.z j.0.D.I.4.p o o o o d ; : ; ; ; : ; ; ; ; ; ; : ; > j  ., < < i < k %.y  . .< 7.$X$Xu.J.HXnX .m.s.s.5 e.j &.%.&.@.%.9.",
"1 j j >.l %Xk.&X*Xa.oXL ^ oX~ P ,.P.,.F.y.#X,.L.,.L.G.5Xh.P.#.j +.< & # p p p p p I h 1 E [. X!.| S.S.h pX XaXa e.7 8.%.%.@.+.9.",
"2  .j g.l eXj.a.D.i.n.I ! V.z.7.P.K.m.n.6.l.#.l.:.n.n.N.N.0.z 8.+., P '.(.^ (.~ ^ ^ P > W OXOX}.| 3.3.u pXmXjXd 9.j %.8.%.*.$.8.",
"0  .g 9.0.q.q.t.q.q.4.5.*.&.t.q.t.u.a.a.j.j.D.j.s.0.9.4.*.@.l 5 j % (.+X`.^ (.~ ^ ^ oX, ! sXsXB.| U.S.i sXOXjXb 9.j %.%.%.*.O.8.",
"2  .g %.$.> % > 1 > ` <.' 1.$ L o Z + + & k 0 < $ j 0 >.l L o Z * # (.oX_ ) ) ) ) ~ oXr ] 1.1.| | S.3.; 1.1.1.2 %.j  .%.%.4.+.=.",
"2 z j #.P K $ y.#Xy.,.Y.,.Y.h NXL lXsXsXh a.u.6.$ 0.@.c.v sXZ oXa a (.'.FXLXUXUXLXkX`.t - - - - ` ` ] - - - : % * = %.-.o.o.o.>.",
"q z j v :./ a ,.t.-.,.6X,.mXa pXS }.]._ I 9XOX=X1 3Xx.3Xv hXK sXa r (.`.FXLXLXLXLXkXoX% = > > % > > > % > & p ( GXGXK [ A.Y.S.2.",
"0 k z { uXkXx P.L.g.<.1.] ,.l / s E E W 7.=XN.M.0 1Xn.,Xv `.s ( 5 r (.) LXLXUXLXLXkXoX% > g g > g g 9 & j j d (.~ ~ ^ 2 :XVXDXA.",
"9 k z p.G.K.8.i.u.q.$.+. .O.+.4.p.P.D.j.p.e.e.w.i.9.w.9.8.q O.z j * (.^ L W W _ _ W +X$ & , , % , , , $ < g p / jX`./ 2 2XAX5X,.",
"< k j z j > > > > , , , , g z g < < < < , g g < < < < , , & & & , r ^ XX'.'.`.(.(.(.hX, z  .+. . .@.*.O.k k a V.C.gXC #.H.;X:X2.",
", 7 & % $ $ % % % % % % % % % % % % % % % % $ % $ $ $ f Q z.z.b $ * ^ +X'.+XXXXXXX'.hX< %.%.=.8.9.d.r.C.= z a xX;.I jX .&X*X&X9.",
"@.@.O.O.O. .$ % % % % j z z , m r b T T Q Q T b n n b z.vXxXdXB.r r ^ (.P U L P P (.jX< p.1 ; : > f O.fXGX7.a JXJXHXvXO.eXwXeX+.",
"f.f.p.p.p.p.B.h <.2.] 0.f.f.q dXh dXxXdXdXdXdXz.C.C.C.V.nXSXHXgXZ.a ^ '.+X+X+XhXhX'.hX< f.j Y.Y.;.lXw fXGXz.5 JXPXPXvXq F.&X#X4.",
"%Xd.p.p.p.p.B.! HXKXdX&.p.d.q fXn iXxXbXbXxXdXV.V.V.C.B.nXHXIXlXZ.a ^ +XXXXXXX'.'.XXjX< f.m IXIXfX! w.5.z %.* vXIXIXvX .=.&.8.d.",
"%Xd.f.p.p.p.{ ! PXPXlX%.p.p.w GXZ.a b b m m m r JXvXV.B.UXLXUXlXZ.n L ~ ~ ~ ~ ~ ~ ~ '.< e.b PXPXlX[ p.p.8.%.8 T V.iXz.w.f.f.f.d.",
"F.d.f.p.p.p.%.z.PXPXvX&.p.p.w JXZ.B.vXdXdXZ.iXz.JXbXV.Q lXlXbXdXdXZ.s Z Z Z Z Z Z + L 7 &.l GXGXgX[ i.g.p.e.8.>.0.8.e.f.f.f.f.f.",
"F.d.p.9.p.p.8.#.n Q ;.e.p.p.[ GXB.fXbXdXJXxXdXxXJXvXJXbXfXgXdXdXbXZ.4 + + + + + + Z o 9.%.$. . . .e.f.g.d.w.p.p.p.p.f.f.f.f.f.f.",
"I.j.k.a.a.g.g.g.f.p.e.w.w.9.&.6.6.6.6.6.6.6.v.v.v.v.x.n.n.n.c.x.v.@. .l h h l l h h =.k.p.p.p.p.j.j.j.g.d.d.d.d.f.f.f.f.g.g.g.f.",
"g.F.s.a.a.a.m.D.D.P.P.F.L.%X#X%X$XF.P.D.j.j.j.s.j.D.D.P.F.L.#X#X%Xi.p.f.f.p.p.i.w.0.0.P.F.F.F.%X&X*X*X*X*X&X&X&XI.F.F.F.F.F.F.g.",
"j  .O. . . .z  .q z q q k q  . . .O.+.+.+.+.+.+... . . .[ q [ q  .O.+. .+.+.+.$.$.$.$.%..... . ....... .+.+.$.%.%.&.=.=.=.>.8.%.",
"% $ > $ $ $ $ & % % , & % % 7 % $ $ , $ $ $ % % $ % > % % % , % % & > $ $ % % $ $ $ $ > $ % % % % % 7 % % % , % $ $ $ $ % & % % ",
"$. .8.+.*.*.@.O.7 9 +., 9 9 O.9 j 9 *.j *.*.*., 9 7 O.& 7 7 z 7 7 j z 7 9 k g @.+.O.O.z k z j j j j  .& < <  .y O. .O.z z g , < ",
"8.8.9.z +.+.+.=.z  .8., O. .*.z O.O.4.z %.$.w.g +.O.8.< +.O.=. .O.=.O.z O.+.z +.+.%.=.+.0.8.8.8.4.%.w., O.O.4.O.8.&.=.4.8.O.O.+.",
"$.8.9.9 O.4. .*.z 8.8., O. .4. .$.+.*.O.&. .8.g z O.4.7 %.%.*.9 8.%.O.z  .+.z O. .+.+.O.9.%.8.&.z  .0., %.+.=.+.8.%.8.&.%.O. .+.",
"+.$.0. .%.$.$.*.z  .8., +. .8. .&.O.+.z *.%.w.g O.O.&.g +.$. . .$.%.g q O.+. .O. .8.+.O.8.4.=.&.O.[ 0., +.O.*.v %.$.%.%.&.O. .+.",
"+.4.*X*X&X&X&Xa.9 O.8., +. .8.j , D.F.F.P.P.P.7 O.O.*.j  .8.%XI.I.I.F.i.9 +.+.O.O. .+.9 D.F.F.I.&XD.9., O.O.%.O.F.F.F.P.P.0.z +.",
", 7 e.0.w.i.w.*.& j z & z k j & & 4.w.w.w.w.p.* z  .z 7 9 *.D.P.P.P.F.4.7 z h g z  .z & 8.w.0.0.0.4.@.% j  . .j p.p.f.p.p.0.k O.",
"z g 7 j z O.k 8.7  .+., O.z 9 % % q < h z z 5.y z z z 7 g 7 > g < 1 < *., 9 g 7 j z g < j  .z , & O.j > , * % , 9 7 l l h @.j z ",
"z 7 O.+.8.k.f.i.9 O.$.< +.O. .> % +. .$.f.j.g.y +.O. .9 j 7 +.%.a.j.i.p.7 O.z z O.O.& , +.+.=.k.%Xj.9 , O.z $ 7  . .t.j.j.i.z O.",
"< 9 O. .&.9.=.p.9 +.+.7 +.O.z % % +.O.+.8.k.f.g +.+.O.g g 7 O. .$.9.9.w.7  .z z O.O.% ,  . .q 0.w.w.9 < +.+.% < O. .=.8.8.p.z +.",
"l 7  .O. .+.0.p.% g g g l l h h r 9 O.O.%.=.p.y , > & & t y +. .%.&.e.i.> j g g g g % < j O. .+.0.i., y j j r >  .O. .8.&.p.7 , ",
"t.y g +.O.$.4.%.;.6.6.6.6.6.6.6.h >  .O. .%.>.x v.v.t.6.6.% k O.+.%.%.8.x 6.6.6.6.6.v.h ,  .O.+.4.w.h :.:.7.7.t j O.O.+.%.w.#.6.",
"c.:.x j j j < n.3X-X-X#X-X#XM.v.6.h g z z z k K.@XJ.J.M.6.;.y z z z 0 l.0XK.K.K.K.x.6.:.x 9  . .q O.,XG.G.c.6.;.l 9  . .0 #.m.M.",
";XM.6.x x v l.9X9X9XwXwXwX9XwX7XM.v.x h h t <X9X9X9X9X0X>Xx.;.l l g 7.9X9X9X9X9X9X0X=Xc.6.t g x n ,X9XwXwXwX;XM.6.= % $ * ,X9X9X",
"0X9X5X0X0X9X9X9X3X;X;X-X;X>X,X>X0X5X3X3X3X9XwX9X3X,X:X>X,X#X,X,X,X,X5X,X>X4X4X3X3X3X9X9X;X;X-X5X<X:X0X,X,X5X>X9X:X:X-X-X<X3X>X>X",
"#XK.K.J.J.J.J.@X-X=X=X-X=XJ.J.J.#X#X-X-X-X-X;X;X;X;X:X:X;X:X:X:X:X:X;X#X-X-X-X-X;X:X,X,X>X<X>X>X<X>X>X,X:X,X;X>X3X3X3X3X3X>X>X3X"
};
