/* XPM */
static char *_f2b0aaa19bf46c9e75aed6e60d3077eIBpId4d9AydIQNzx[] = {
/* columns rows colors chars-per-pixel */
"48 48 5 1 ",
"  c #282E33",
". c #3C454C",
"X c #515D66",
"o c #FFAA00",
"O c yellow",
/* pixels */
"   XXXXXXXXXXXXXXXXXXXXXXXXXXXXXXXXXXXXXXXXXX   ",
"   XXXXXXXXXXXXXXXXXXXXXXXXXXXXXXXXXXXXXXXXXX   ",
"   XXXXXXXXXXXXXXXXXXXXXXXXXXXXXXXXXXXXXXXXXX   ",
"   XXXooooooXXXXXXXXXXXXXXXXXXXXXXXXooooooXXX   ",
"   XXXooooooXXXXXXXXXXXXXXXXXXXXXXXXooooooXXX   ",
"   XXXooooooXXXXXXXXXXXXXXXXXXXXXXXXooooooXXX   ",
"   XXXoooXXXoooXXXXXXXXXXXXXXXXXXoooXXXoooXXX   ",
"   XXXoooXXXoooXXXXXXXXXXXXXXXXXXoooXXXoooXXX   ",
"   XXXoooXXXoooXXXXXXXXXXXXXXXXXXoooXXXoooXXX   ",
"   XXXXXXooooooXXXXXXXXXXXXXXXXXXooooooXXXXXX   ",
"   XXXXXXooooooXXXXXXXXXXXXXXXXXXooooooXXXXXX   ",
"   XXXXXXooooooXXXXXXXXXXXXXXXXXXooooooXXXXXX   ",
"   XXXXXXXXXXXXXXXoooXXXXXXoooXXXXXXXXXXXXXXX   ",
"   XXXXXXXXXXXXXXXoooXXXXXXoooXXXXXXXXXXXXXXX   ",
"   XXXXXXXXXXXXXXXoooXXXXXXoooXXXXXXXXXXXXXXX   ",
"   XXXXXXXXXXXXoooOOOXXXXXXOOOoooXXXXXXXXXXXX   ",
"   XXXXXXXXXXXXoooOOOXXXXXXOOOoooXXXXXXXXXXXX   ",
"   XXXXXXXXXXXXoooOOOXXXXXXOOOoooXXXXXXXXXXXX   ",
"   XXXXXXoooXXXXXXXXXXXXXXXXXXXXXXXXoooXXXXXX   ",
"   XXXXXXoooXXXXXXXXXXXXXXXXXXXXXXXXoooXXXXXX   ",
"   XXXXXXoooXXXXXXXXXXXXXXXXXXXXXXXXoooXXXXXX   ",
"   XXXXXXOOOXXXXXXXXXOOOOOOXXXXXXXXXOOOXXXXXX   ",
"   XXXXXXOOOXXXXXXXXXOOOOOOXXXXXXXXXOOOXXXXXX   ",
"   XXXXXXOOOXXXXXXXXXOOOOOOXXXXXXXXXOOOXXXXXX   ",
"   XXXXXXoooXXXXXXXXXXXXXXXXXXXXXXXXoooXXXXXX   ",
"   XXXXXXoooXXXXXXXXXXXXXXXXXXXXXXXXoooXXXXXX   ",
"   XXXXXXoooXXXXXXXXXXXXXXXXXXXXXXXXoooXXXXXX   ",
"   XXXXXXXXXXXXoooOOOXXXXXXOOOoooXXXXXXXXXXXX   ",
"   XXXXXXXXXXXXoooOOOXXXXXXOOOoooXXXXXXXXXXXX   ",
"   XXXXXXXXXXXXoooOOOXXXXXXOOOoooXXXXXXXXXXXX   ",
"   XXXXXXXXXXXXXXXoooXXXXXXoooXXXXXXXXXXXXXXX   ",
"   XXXXXXXXXXXXXXXoooXXXXXXoooXXXXXXXXXXXXXXX   ",
"   XXXXXXXXXXXXXXXoooXXXXXXoooXXXXXXXXXXXXXXX   ",
"   XXXXXXooooooXXXXXXXXXXXXXXXXXXooooooXXXXXX   ",
"   XXXXXXooooooXXXXXXXXXXXXXXXXXXooooooXXXXXX   ",
"   XXXXXXooooooXXXXXXXXXXXXXXXXXXooooooXXXXXX   ",
"   XXXoooXXXoooXXXXXXXXXXXXXXXXXXoooXXXoooXXX   ",
"   XXXoooXXXoooXXXXXXXXXXXXXXXXXXoooXXXoooXXX   ",
"   XXXoooXXXoooXXXXXXXXXXXXXXXXXXoooXXXoooXXX   ",
"   XXXooooooXXXXXXXXXXXXXXXXXXXXXXXXooooooXXX   ",
"   XXXooooooXXXXXXXXXXXXXXXXXXXXXXXXooooooXXX   ",
"   XXXooooooXXXXXXXXXXXXXXXXXXXXXXXXooooooXXX   ",
"   XXXXXXXXXXXXXXXXXXXXXXXXXXXXXXXXXXXXXXXXXX   ",
"   XXXXXXXXXXXXXXXXXXXXXXXXXXXXXXXXXXXXXXXXXX   ",
"   XXXXXXXXXXXXXXXXXXXXXXXXXXXXXXXXXXXXXXXXXX   ",
"   XXX......XXX.........XXX...XXX.........XXX   ",
"   XXX......XXX.........XXX...XXX.........XXX   ",
"   XXX......XXX.........XXX...XXX.........XXX   "
};
