/* XPM */
static char *bccf52993e5b4efec3acd65c76f9a204nmX1YQdX7dOReVtO[] = {
/* columns rows colors chars-per-pixel */
"48 48 23 1 ",
"  c #232936",
". c #3C454C",
"X c #2D4959",
"o c #304253",
"O c #304960",
"+ c #305362",
"@ c #385E7A",
"# c #366773",
"$ c #47444A",
"% c #634640",
"& c #704F46",
"* c #7C574C",
"= c #515D66",
"- c #916656",
"; c #986C5A",
": c #9E725D",
"> c #B58567",
", c #BF957A",
"< c #3A6E85",
"1 c #3E838C",
"2 c #A4ACB2",
"3 c #C7A189",
"4 c #C1C7CC",
/* pixels */
"...444222444444222444222444444444222444222444...",
"...444222444444222444222444444444222444222444...",
"...444222444444222444222444444444222444222444...",
"444222222222222222222222222222222222222222222444",
"444222222222222222222222222222222222222222222444",
"444222222222222222222222222222222222222222222444",
"222222222222222222222222222222222222222222222222",
"222222222222222222222222222222222222222222222222",
"22222222222oooooo2222222222222222222222222222222",
"44422222222oooooo2222222222222222222222222222444",
"444222222$$1111<<oo2222++++++2222222222222222444",
"444222222$$1111<<oo2222++++++2222222222222222444",
"444222222&&$$>>  <<oo++1111++2222222222222222222",
"444222222&&$$>>  <<oo++1111++2222222222222222222",
"444222222&&$$>>>>,,<<oo####++2222222222222222222",
"222222222&&$$>>>>,,<<oo####++2222222222222222444",
"222222222&&33,,,,**11<<oo1111++22222222222222444",
"222222222&&33,,,,**11<<oo1111++22222222222222444",
"44422222222&&****--%%11<<oo##++22222222222222444",
"44422222222&&****--%%11<<oo##++22222222222222444",
"44422222222&&33>>--;;%%11<<oo++22222222222222444",
"22222222222&&33>>--;;%%11<<oo++22222222222222444",
"22222222222&&33>>%%--;;%%<<oo##++222222222222444",
"22222222222&&33>>%%--;;%%<<oo##++222222222222444",
"4442222222222&&33>>%%%%%%11<<oo##++2222222222222",
"4442222222222&&33>>%%%%%%11<<oo##++2222222222222",
"444222222222222&&33>>>>>>::<<oo##++2222222222222",
"444222222222222&&33>>>>>>::<<oo##++2222222222444",
"44422222222222222&&&&&&33>>::@@oo222222222222444",
"44422222222222222&&&&&&33>>::@@oo222222222222444",
"44422222222222222XX<<XX&&&&>>::@@oooooo222222222",
"44422222222222222XX<<XX&&&&>>::@@oooooo222222222",
"4442222222222222222XXXX2222&&>>OOOO<<oo222222222",
"2222222222222222222XXXX2222&&>>OOOO<<oo222222444",
"22222222222222222222222222222ooOO@@oo22222222444",
"22222222222222222222222222222ooOO@@oo22222222444",
"44422222222222222222222222222oo<<oo2222222222444",
"44422222222222222222222222222oo<<oo2222222222444",
"44422222222222222222222222222oooo222222222222444",
"22222222222222222222222222222oooo222222222222222",
"222222222222222222222222222222222222222222222222",
"222222222222222222222222222222222222222222222222",
"===444222444222444444444222444222444444222444===",
"===444222444222444444444222444222444444222444===",
"===444222444222444444444222444222444444222444===",
"...==========================================...",
"...==========================================...",
"...==========================================..."
};
