/* XPM */
static char *_floor[] = {
/* columns rows colors chars-per-pixel */
"48 48 4 1 ",
"  c #3C454C",
". c #515D66",
"X c #A4ACB2",
"o c #C1C7CC",
/* pixels */
"   oooXXXooooooXXXoooXXXoooooooooXXXoooXXXooo   ",
"   oooXXXooooooXXXoooXXXoooooooooXXXoooXXXooo   ",
"   oooXXXooooooXXXoooXXXoooooooooXXXoooXXXooo   ",
"oooXXXXXXXXXXXXXXXXXXXXXXXXXXXXXXXXXXXXXXXXXXooo",
"oooXXXXXXXXXXXXXXXXXXXXXXXXXXXXXXXXXXXXXXXXXXooo",
"oooXXXXXXXXXXXXXXXXXXXXXXXXXXXXXXXXXXXXXXXXXXooo",
"XXXXXXXXXXXXXXXXXXXXXXXXXXXXXXXXXXXXXXXXXXXXXXXX",
"XXXXXXXXXXXXXXXXXXXXXXXXXXXXXXXXXXXXXXXXXXXXXXXX",
"XXXXXXXXXXXXXXXXXXXXXXXXXXXXXXXXXXXXXXXXXXXXXXXX",
"oooXXXXXXXXXXXXXXXXXXXXXXXXXXXXXXXXXXXXXXXXXXooo",
"oooXXXXXXXXXXXXXXXXXXXXXXXXXXXXXXXXXXXXXXXXXXooo",
"oooXXXXXXXXXXXXXXXXXXXXXXXXXXXXXXXXXXXXXXXXXXooo",
"oooXXXXXXXXXXXXXXXXXXXXXXXXXXXXXXXXXXXXXXXXXXXXX",
"oooXXXXXXXXXXXXXXXXXXXXXXXXXXXXXXXXXXXXXXXXXXXXX",
"oooXXXXXXXXXXXXXXXXXXXXXXXXXXXXXXXXXXXXXXXXXXXXX",
"XXXXXXXXXXXXXXXXXXXXXXXXXXXXXXXXXXXXXXXXXXXXXooo",
"XXXXXXXXXXXXXXXXXXXXXXXXXXXXXXXXXXXXXXXXXXXXXooo",
"XXXXXXXXXXXXXXXXXXXXXXXXXXXXXXXXXXXXXXXXXXXXXooo",
"oooXXXXXXXXXXXXXXXXXXXXXXXXXXXXXXXXXXXXXXXXXXooo",
"oooXXXXXXXXXXXXXXXXXXXXXXXXXXXXXXXXXXXXXXXXXXooo",
"oooXXXXXXXXXXXXXXXXXXXXXXXXXXXXXXXXXXXXXXXXXXooo",
"XXXXXXXXXXXXXXXXXXXXXXXXXXXXXXXXXXXXXXXXXXXXXooo",
"XXXXXXXXXXXXXXXXXXXXXXXXXXXXXXXXXXXXXXXXXXXXXooo",
"XXXXXXXXXXXXXXXXXXXXXXXXXXXXXXXXXXXXXXXXXXXXXooo",
"oooXXXXXXXXXXXXXXXXXXXXXXXXXXXXXXXXXXXXXXXXXXXXX",
"oooXXXXXXXXXXXXXXXXXXXXXXXXXXXXXXXXXXXXXXXXXXXXX",
"oooXXXXXXXXXXXXXXXXXXXXXXXXXXXXXXXXXXXXXXXXXXXXX",
"oooXXXXXXXXXXXXXXXXXXXXXXXXXXXXXXXXXXXXXXXXXXooo",
"oooXXXXXXXXXXXXXXXXXXXXXXXXXXXXXXXXXXXXXXXXXXooo",
"oooXXXXXXXXXXXXXXXXXXXXXXXXXXXXXXXXXXXXXXXXXXooo",
"oooXXXXXXXXXXXXXXXXXXXXXXXXXXXXXXXXXXXXXXXXXXXXX",
"oooXXXXXXXXXXXXXXXXXXXXXXXXXXXXXXXXXXXXXXXXXXXXX",
"oooXXXXXXXXXXXXXXXXXXXXXXXXXXXXXXXXXXXXXXXXXXXXX",
"XXXXXXXXXXXXXXXXXXXXXXXXXXXXXXXXXXXXXXXXXXXXXooo",
"XXXXXXXXXXXXXXXXXXXXXXXXXXXXXXXXXXXXXXXXXXXXXooo",
"XXXXXXXXXXXXXXXXXXXXXXXXXXXXXXXXXXXXXXXXXXXXXooo",
"oooXXXXXXXXXXXXXXXXXXXXXXXXXXXXXXXXXXXXXXXXXXooo",
"oooXXXXXXXXXXXXXXXXXXXXXXXXXXXXXXXXXXXXXXXXXXooo",
"oooXXXXXXXXXXXXXXXXXXXXXXXXXXXXXXXXXXXXXXXXXXooo",
"XXXXXXXXXXXXXXXXXXXXXXXXXXXXXXXXXXXXXXXXXXXXXXXX",
"XXXXXXXXXXXXXXXXXXXXXXXXXXXXXXXXXXXXXXXXXXXXXXXX",
"XXXXXXXXXXXXXXXXXXXXXXXXXXXXXXXXXXXXXXXXXXXXXXXX",
"...oooXXXoooXXXoooooooooXXXoooXXXooooooXXXooo...",
"...oooXXXoooXXXoooooooooXXXoooXXXooooooXXXooo...",
"...oooXXXoooXXXoooooooooXXXoooXXXooooooXXXooo...",
"   ..........................................   ",
"   ..........................................   ",
"   ..........................................   "
};
