/* XPM */
static char *_09a67c26a574e76d7b809c3acb89927tHLNHpNZLIHcIrmz[] = {
/* columns rows colors chars-per-pixel */
"64 64 256 2 ",
"   c #341A11",
".  c #193405",
"X  c #362619",
"o  c #2C3912",
"O  c #343C15",
"+  c #282E0E",
"@  c #3D1E23",
"#  c #332E27",
"$  c #162815",
"%  c #4C170F",
"&  c #471B17",
"*  c #591A17",
"=  c #531B0B",
"-  c #69191A",
";  c #791B1B",
":  c #71170D",
">  c #4B2419",
",  c #582417",
"<  c #5A2B14",
"1  c #68271A",
"2  c #76271A",
"3  c #70361C",
"4  c #451D24",
"5  c #491D25",
"6  c #491C29",
"7  c #591D24",
"8  c #721E23",
"9  c #452125",
"0  c #4A2126",
"q  c #4A2229",
"w  c #472729",
"e  c #562729",
"r  c #562B37",
"t  c #513031",
"y  c #672726",
"u  c #792825",
"i  c #793824",
"p  c #683638",
"a  c #773836",
"s  c #6F2D30",
"d  c #194806",
"f  c #27580C",
"g  c #2C4512",
"h  c #364915",
"j  c #395518",
"k  c #294E10",
"l  c #336D18",
"z  c #2D572A",
"x  c #49591B",
"c  c #4A5219",
"v  c #47661D",
"b  c #4B6B1C",
"n  c #52522D",
"m  c #72502F",
"M  c #517025",
"N  c #6D702A",
"B  c #695419",
"V  c #34344F",
"C  c #2E3A68",
"Z  c #582E47",
"A  c #5C3448",
"S  c #4F2F4B",
"D  c #643647",
"F  c #673C54",
"G  c #793C46",
"H  c #463C6E",
"J  c #334672",
"K  c #35565A",
"L  c #52485A",
"P  c #6D4447",
"I  c #784748",
"U  c #6D4359",
"Y  c #76485A",
"T  c #7C535A",
"R  c #705851",
"E  c #7A4A62",
"W  c #6C5471",
"Q  c #625D6B",
"!  c #971C17",
"~  c #88171B",
"^  c #A41617",
"/  c #B31815",
"(  c #902B1C",
")  c #B4291B",
"_  c #871D22",
"`  c #961C27",
"'  c #B01C21",
"]  c #872827",
"[  c #962627",
"{  c #883924",
"}  c #993927",
"|  c #8F3437",
" . c #A82826",
".. c #B72926",
"X. c #A7352B",
"o. c #BA3B35",
"O. c #AC3131",
"+. c #DA291C",
"@. c #C62C1E",
"#. c #E3291D",
"$. c #C72C25",
"%. c #DC2C23",
"&. c #CB342B",
"*. c #DC342A",
"=. c #C93B35",
"-. c #DA3835",
";. c #E73528",
":. c #F43A2B",
">. c #EB3E31",
",. c #F33E31",
"<. c #E72D24",
"1. c #CB1B1F",
"2. c #8F4A1A",
"3. c #894629",
"4. c #97462A",
"5. c #995636",
"6. c #8E4C35",
"7. c #A44C2B",
"8. c #A9542D",
"9. c #A74838",
"0. c #BA433A",
"q. c #A95736",
"w. c #B55B35",
"e. c #B35A2F",
"r. c #8B7030",
"t. c #BA6538",
"y. c #AB7037",
"u. c #BB6419",
"i. c #C4433C",
"p. c #D7453B",
"a. c #CB4C2D",
"s. c #E9463B",
"d. c #F94436",
"f. c #EF5027",
"g. c #C76B3D",
"h. c #D0773B",
"j. c #E1712E",
"k. c #943748",
"l. c #AE3748",
"z. c #8C3D69",
"x. c #D12F49",
"c. c #854C46",
"v. c #975549",
"b. c #84585A",
"n. c #925050",
"m. c #A85655",
"M. c #B4504C",
"N. c #8B635B",
"B. c #95685B",
"V. c #9A735D",
"C. c #8D6D4C",
"Z. c #B3674C",
"A. c #8A5D64",
"S. c #855763",
"D. c #8E4B6A",
"F. c #8D6265",
"G. c #8B6669",
"H. c #94656A",
"J. c #95696B",
"K. c #956667",
"L. c #9C7363",
"P. c #9A7576",
"I. c #966870",
"U. c #A57A65",
"Y. c #A87977",
"T. c #B57D77",
"R. c #AB6D68",
"E. c #B15B6F",
"W. c #CA4A44",
"Q. c #C75B56",
"!. c #D1504E",
"~. c #FA5548",
"^. c #EF524A",
"/. c #C97744",
"(. c #D57843",
"). c #C8635C",
"_. c #CE684B",
"`. c #F16958",
"'. c #D1556B",
"]. c #C86765",
"[. c #D26A65",
"{. c #D07673",
"}. c #EE686A",
"|. c #3E8323",
" X c #518B28",
".X c #6B9430",
"XX c #659E2D",
"oX c #6D9953",
"OX c #609E6B",
"+X c #968C37",
"@X c #AF9132",
"#X c #CB9030",
"$X c #E1952C",
"%X c #879346",
"&X c #B18B44",
"*X c #8F9372",
"=X c #A88479",
"-X c #B9857C",
";X c #B08A68",
":X c #8AAD59",
">X c #DA8448",
",X c #D58C52",
"<X c #E5894C",
"1X c #EA9555",
"2X c #F19253",
"3X c #EEA459",
"4X c #D28978",
"5X c #F5AF6C",
"6X c #E29C67",
"7X c #396CB6",
"8X c #285596",
"9X c #506397",
"0X c #AB7784",
"qX c #9B6C8C",
"wX c #E06D8D",
"eX c #7F96A2",
"rX c #2F96CF",
"tX c #5AB2DF",
"yX c #3DADB8",
"uX c #A78889",
"iX c #B88A86",
"pX c #BC928D",
"aX c #B79797",
"sX c #AC9091",
"dX c #A99997",
"fX c #D98986",
"gX c #C5938C",
"hX c #C79B96",
"jX c #CE958E",
"kX c #EF8B8D",
"lX c #CAA19A",
"zX c #D5A599",
"xX c #D8ABA6",
"cX c #DAB3AC",
"vX c #D9B7B6",
"bX c #C6AAA8",
"nX c #E5BCB8",
"mX c #F0B1AE",
"MX c #EDA895",
"NX c #E7C3BD",
"BX c #FBC2BF",
"VX c #D7C2AC",
"CX c #E9C6C4",
"ZX c #E6D8D9",
"AX c #F3DADA",
"SX c #F2CCC6",
"DX c #E7DEE2",
"FX c #EAE7E9",
"GX c #F5EBEC",
"HX c #FFFFFF",
"JX c #FEFDFE",
"KX c #FEFEFE",
"LX c #F8F3F5",
"PX c #F2EEF1",
"IX c #DBC5C5",
"UX c #ADB9DB",
/* pixels */
"PXQ.+.MXHXFX+.:.aXHX!.#.zXHXP.HX{.*.AXLX{.;.!.FXAX+.&.LXHXuXLXGXp.<.{.LXfX#.).HXPXsXJXnX+.;.IXJXp.+.CXHXaXDXJXQ.#.Q.PXmX+.o.LXLX",
"FXQ.:.mXHXAX+.~.iXHX!.;.zXJXP.HX{.d.AXJX{.>._.ZXAX%.&.LXHXP.LXGXW.d.4XLXfX:.).HXPXsXJXnX;.s.IXJXp.%.CXHXaXZXJX[.:.).PXnX#.0.HXHX",
"FX!.:.mXHXAX+.`.uXHXW.s.xXLXuXHX{.d.AXJX{.:.{.ZXAX*.=.LXHXP.LXPXp.~.gXLXfXd.).HXLXuXHXnX%.`.vXJXW.-.NXHXaXZXJX).d.{.PXnX;.0.HXHX",
"FX!.:.mXHXZX+.~.uXHX0.^.xXLXuXHX{.~.GXHX{.:.[.ZXAX*.=.JXHXI.JXLXp.~.T.JXfX^.].HXPXuXHXNX+.`.bXHXp.p.nXHXsXZXHX).d.{.PXnX>.0.HXHX",
"FXW.:.mXHXSX+.^.=XHX0.;.xXPXsXHX{.~.GXHX{.:.).ZXAXp.$.HXHXG.HXLX=.~.T.HXfXs.].HXPXuXHXCX+.`.bXHXQ.p.CXHXsXZXHX).d.].PXnX^.0.HXHX",
"FXW.:.mXHXCX+.^.Y.HXo.;.cXPXsXHX4X~.GXHX[.,.).ZXAX+.$.HXHXG.HXJX=.~.R.HXfX<.).HXPXuXHXCX+.`.aXHX=.+.CXHXsXZXHX).d.Z.FXnX;.o.HXHX",
"FXi.,.mXHXCX%.^.Y.HXi.;.cXPXsXHX4X:.GXHX[.,.Q.ZXAX%.$.HXHXF.HXHX=.~.m.HXfX:.).HXGXuXHXCX+.`.pXHX=.*.CXHXsXDXHX).d.M.FXnX%.i.HXHX",
"FXi.d.mXHXnX%.^.Y.HXi.;.cXPXaXJXfX,.LXHX[.,.Q.ZXAX%.@.HXHXA.HXHX&.~.m.HXfX<.).HXGXuXHXCX+.`.pXHX=.+.CXHXsXDXHX).d.M.FXnX<.i.HXHX",
"FX=.d.SXHXnX;.^.=XHXW.;.cXPXaXJX4X^.LXHX[.d.M.ZXZX%.$.HXHXb.HXHX&.~.v.HXfX<.].HXFXuXHXCX#.`.sXHX=.+.CXHXsXFXHX[.d.M.FXnX%.i.HXHX",
"FX=.:.mXHXnX*.s.uXHXW.;.cXPXaXLXfX^.JXHX).d.M.ZXZX%.&.HXHXb.HXHX$.~.v.HXfX:.].HXFXuXHXCX#.`.sXHX=.%.CXHXsXFXHX[.d.M.FXnX;.W.HXJX",
"FX=.:.mXHXnX;.p.iXHXW.;.mXPXaXLXfX>.HXHX).d.9.FXSX%.&.HXHXb.HXHX$.~.c.HXfX<.[.HXFXuXHXCX+.^.sXHX=.+.CXHXuXFXHX].d.9.FXnX<.W.HXJX",
"FX=.:.mXHXcX>.p.pXHX).^.cXPXaXLXfX<.HXHXQ.d.9.FXSX*.&.HXHXb.HXHX..~.c.HXfX>.[.HXDXsXHXNX+.^.uXHX=.+.CXHXuXGXHX).d.9.FXNX;.W.HXJX",
"DX=.,.BXHXxX>.p.aXHXQ.s.xXLXaXLXfX>.HXHXQ.d.X.FXSXs.=.HXHXF.HXHX..~.6.HXfX^.[.HXZXsXHXCX+.^.uXHXW.-.CXHXuXPXHXQ.d.9.PXnX`.W.HXLX",
"DXi.d.SXJXxX>.p.aXJX!.>.xXLXaXJXfX:.HXHXQ.d.X.PXSX%.=.HXHXG.HXHX..~.6.HXfX<.[.HXZXaXHXCX+.^.uXHX=.%.CXHX0XPXHXQ.d.X.PXCX;.W.JXLX",
"FXW.d.nXJXxX>.p.lXLX!.>.xXJXsXJX4X<.HXHXQ.d.X.PXCX;.=.JXHXG.HXHX$.~.6.HXfX;.[.HXZXaXHXCX%.^.uXHX=.%.CXHX0XPXHXQ.d.X.PXCX;.W.JXLX",
"vXW.,.mXAXzXs.*.hXFX!.d.zXGXuXJX4X:.LXJXM.~. .LXCX;.W.GXLXG.JXLX$.~.| HXfX:.[.HXZXaXHXnX;.^.iXHX=.;.CXHXuXLXHXQ.~.X.LXCX;.!.LXPX",
"hX=.+.m.xX{.*.&.gXiXo.^.T.hXb.hX).d.pXxX0.:.X.cXR.>.W.xXvXb.cXvX$.:.6.vXM.,.Q.cXaXY.nXjX;.;.P.vX=.;.jXCXP.vXZXM.d. .ZXhX>.W.CXIX",
"D p [ | p I , a r r y o.a I p I a X.P b.| u a D r X.=.I b.p b.L.{ ( b.b.a -.M.P.K.p Y.R.! X.J.I X.d.R.Y.b.B.pXM.) M.pXn.>.!.lXhX",
"S 6 9 4 & & 0 4 4 4 4 0 0 4 q q q q 0 0 4 4 0 0 q @ @ 4 4 6 4 4 q q 4 4 0 e e 4 6 e q e 0 0 0 0 q e q q 0 e e r e 5 & q y u q P ",
"Z D q -  .[ ; - [ _ 2 * u ] ; 7 q 6 q 6 0 0 0 q q 0 q q q 0 0 q q 4 0 q 0 0 q q 0 q 6 q q q 0 0 0 0 q 0 5 & & & & & & & & 4 r N.",
"U U y [ o.=.] u X.=.o.- [ o.o.] 4 1 * y 0 @ 9 9 w 9 w w 0 q q q q e e 0 e e e e 0 q q q 0 0 0 0 0 0 4 4 & { 3.1 4.4., 4.{ e F b.",
"U U y ^.~.~.o.O.~.~.~.u ~.~.~.0., g.3.w.0 k l + l + k f 0 y 7 e & 0 w J @ # n w H t e w t t t t t t t w 1 8.e.1 8.8., 8.8.q A.b.",
"U U 7 M.Q.[.| [ M.}.Q.y !.[.[.| 9._.>Xw.t  X Xg  Xo  X X* ^.}.O.}.O.u L & t n - J & t + j j j j j g O + m >X<Xi <X<X3 <X(.6 S.b.",
"U U y 2X3X3Xt.0.2X2X1Xu 2X5X5XZ.9.w./.q.<  X Xh  XO  X X* [ [ _ [ u ..^ : / ! ! / : t g h h h j j h h o i >X<Xi 1X<X3 2X<X6 S.b.",
"Y F y h.#X#Xy.0.@X@X#Xu >X#X#Xy.i r.y.5.> |.*Xj :Xj .X Xy fX6Xl.6X| ] s y u 8 ] s e A g N N M .X+XN j h 3 >X2X3.3X1Xi 2X<X6 S.b.",
"Y F y p.2X3X_.[ ^.2X2Xu ^.`.`.q.8.y.+Xy.3 M oXj :Xx oXoX*  .......[ 9X7XJ 7X8X9X7XJ r o c c h h h g g g 1 (.2X3.3X1Xi 3X1X6 S.b.",
"E F 7 ` ; ; - ; [ } } - [ X.7.] Z.5X2X>X3 M *Xj oXv oX X- ^.MXf.:.&.W dXR 9XP.F bXY A g N x v y.y.N h h < (.3X3.1X6Xi 3X1X6 S.T ",
"S.F y ; ~ _ - - ~ _ ~ - ; ` ` - 7.,X<Xg.> l M j |.h l l y =.'.0XwXl.V J V J C H 8XV r j v x f f l j +Xj > y.+XB &X%X3 +X+X7 E T ",
"S.b.R.v.v.v.v.v.v.c.c.B.c.m m v.v.v.v.v.B.m m R n R n n 6.| | [ [ ] L H L S S Z V A t h b r.+X+X+XN N j > 3.B < m B < 3.B e E T ",
"S.Y I.hXpXhXpXpXiXiXiXiXiXiXiXiXiXiXpXhXhXhXlXxXcXcXcXcXcXcXcXxXxXxXlXlXhXhXlXhXhXgXe o h B h c h h O g > , % % % % % % % F E T ",
"A.D Z   X X X @ q q e 0 q w 0 0 0 w 4 5 5 4 5 4 4 5 & 4 5 & 0 0 q q w w w t t w p t & o B M M h v h N h , { { 1 { { , { i A E T ",
"H.A X d g g d o w & } > 0 K 9 q X %XX q 0 0 0 4 Z S a a W.s #X$X5.Z.6...d...O.x.8 =.o.+ x x b M N x g g & 7.8.{ 8.8.1 e.8.e E T ",
"H.Z O  XXXXXXXl X y ] 7 q K w 6 X W t y x.` x.` D.!.Z.Z.I Z ] } i a s _ [ 1 [ ] *  .u + j j x b h j g g < (.(.7.g.g.i (.g.q E T ",
"H.Z O  XXX6X.Xl p [ &.u w 7X9X0 C 7X9Xy '.l.wXk.z.0Xm.n.qXY [ X.6./.6.[ $.!  ...; ....X v v N +X+Xr.b k , <X<Xq.>X>X3.<X>Xe E T ",
"I.Z w x x c c c c.X.>.! 9XtXtXA 7XUXtX* ] _ ] - wXMXE.m.kXm...>.5.,X6...d...&.,.` *.&.X N r.x M @Xr.x g , (.1Xy.,X,X4.1X>Xe Y T ",
"I.A v.5.5.5.5.5.6. .j.[ H tXtXA 9XUXyXs wX!.kXk.*XuX'.q.5X).g.<XZ.5XZ.=.~.o.x.~.[ s.p.X g h h h c x c g , (.1Xy.>X,X5.1X<Xy U b.",
"I.A q.8.2X6X$X<XZ.` $X} S tXrXr 8XrXrX0 O.O.O.` OXdXeXR yXC.h.$XN XXm o./.5.}.}.| ^.`.> j b  X X+X+Xr.h , (.5Xy./.5X6.1X1Xy U b.",
"H.A q.<X<XMX$X>Xq.[ i.[ S 7X7Xr C rXrXy ].| '.] D.wXwXn.hXZ.0.<X3.&X5.W.5X/.zXvXk.2X1X> j v N M b b r.x & y.&Xr.y.%Xm &X+Xp F b.",
"H.D Z.q.Z.g.g.g.q.] _ ; I C H I V C H u !.x.'.O.z.z.z.D.0Xm. .-.4.>X6.O.'.l.x.!.| x.!.> x c c m r.x c h & 5.r.B 3.N 3 r.N e F b.",
"A.S.gX-X-X-XiXgXgX-XT.-XgXY.Y.-XY.I.Y.R.B.B.B.R.Y.P.0XY.G.Y.K.b.U.C.V.m.n.m.m.m.m.v.v.m o o O h h h o o e s y y y y y y y p F A.",
"S.Y A.N.R B.B.K.U.Y.Y.=X*X*X*XuXuXuXiX-X=XY.Y.Y.Y.Y.Y.=X=XsXiXpXaXlXbXcXjX-XjXjXjXjXjXgXP.Y.Y.Y.=X=X=X=XxXhXzXMXzXjX4X4XT.R.F A.",
"S.A t d + & = % , % *   d d d l f   % & * & * % * % % % =     $ $ $ # J V L 9XW T T T R I I P P P P P R T T T F.G.P.P.P.P.I.F F.",
"S.A t f o } a.2 f.* 0.& v .Xl .XM < 2 * ; * ] 1 2 * 1 - 2 0 . . d . # 8XC C 8Xq ! ! _ ` ] l.!.] $.! @.! $._ [ ; { 2 3 { 5 D A F.",
"E D t f h [ $._ -.8 -.* V.VX XMX;X^ f.( f.! ;.X.%.` -.1.%.u . b |.f S sXY Q uX{ *.$...-.m y.M.} ^.X.s.X.j.} =.] 4X4.v.q.0 F A F.",
"E D D h m u u a ; | ~ i n v j M M ] ^ [ ^ ] ' [ ^ _ ^ ! ^ 6.t f f k P J C J J e 1.' ' / M  Xb 3 &. .&. .a.{ 5.m U.{ n.Z.e F A K.",
"U K.hXjXgXgXgXgXgXgXgXjXhXhXpXlXlXlXhXjXgXjXgXgXiX-X-X-X-X-XU.U.U.L.T.Y.Y.T.0XT.R.T.T.Y.-X;X;X-XR.T.R.R.R.R.R.R.Z.m.m.m.v.D A K.",
"E I T T b.c.T T I I I I P m P P P P I T b.b.b.b.F.J.J.K.J.J.P.Y.Y.Y.Y.Y.Y.Y.Y.Y.T.Y.P.P.Y.Y.Y.Y.0XiXpXpXpXpXaXlXlXbXhXhXiXR.F K.",
"Y r 0 q & , 0 4 0 9 X O O . @ 9 4 4 4 4 4 4 4 4 4 4 4 6 0 0 0 0 q q 4 6 X o + # #   e 4 4 4 4 4 4 4 4 6 6 6 6 6 6 6 6 6 0 e D H.",
"Y r 6 4 4 D q q X . . :X.Xf d + 0 q q q 0 0 0 0 0 0 4 0 6 6 0 0 6 @ M.v.& A.U L qXe E.e 0 0 e e e a s 5 0 0 q q q q e e 6 e A H.",
"U r 4 4 A n X q + g l l b k k d + 9 1 2 i 3 3.i y & ,       X   @ @ Q.{.a r r t r e D.G & 1 * , 1 X.4.{ 0 > 1 , , 1 4.4.i 0 A H.",
"Y r 4 r m c.O @ + f f b d M .Xk . m 2 2 2.3 2.{ 3.2 B . .Xk M .Xd O N.F.J.J.J.B.B.J.J.I 1 2 ! : ! %.' { i i ; ! :  .@.! 4.3 A H.",
"E r q p a p t q > B l XXl XX X|.d 5.2.u.#X2.#Xu.3.9.d  XXXf .XXXf c e $ z   $ z # $ # > 7.~ @.@.! 1.<.1 4.7.~ $...! %.<.3 3 A H.",
"E Z q N XXXXN 5 7.5. XXXf  Xl l . >X2.u.$Xu.$Xu.5.t.d j f f  Xl f 3 a V qXV L U V Q # , <X2 ^ 1.^ ^ ^ q./.#X2 ^ 1.^ ^ / 5.t.D H.",
"E A t N ,Xg.m e 1 8.,X,X,X6X5X5X5Xh.1X3X5X1X5X5X/.t.&XN N N oX.XM Z.m k.'.y n.'.r wXe e 8.h./.(.1X6X6X5Xt.e.g.t.a.<X,XZ.5Xe.D H.",
"E A Z N N .Xn D e 3.7.7.q.g.<X>X<X4.w.w.<X2X<X<Xt.{ g.Z.3X,X3X3X1X(.s 6._.u v.4Xl.}.e A.y 3.8.q./.2X1X3X4.{ 8.t.w.<X3X5X1X6.D H.",
"S.Z r n N N n T 0 i 8.e.g.>X/.g.4.i /.(.(.<X1X<Xq.{ 8.t.g.<X1X3X>X6.I y } s | l.m.l.e A.e 4.7.q.(.h.1X>X{ 1 4.4.w.<X>X1X(.m F A.",
"S.T A q p D D A.Z e { 3.t.g.w.w.a 6.8.g.g.<X/.(.4.1 7.w.#X/.g.>X/.3.b.r a G p k.k.k.t K.e { q.e.(.g.(.7.e * 4.e.8.>X(.g.4.b.S.F.",
"I.xXY.P p P Y.gXT r * 1 2 2 2 3 I I u 4.g.(./.t.s r 2 4.e./.t.4.i c.Y.P p p p D G a J.gXI * 1 { { 3.{ , F e y i 4.4.4.{ p xXnXF.",
"H.nXcXxXxXxXxXnXlXL.B.B.B.B.N.I c.c.c.3 u y y a b.U D r y e y s Y.xXcXzXlXhXhXhXhXlXxXnXxXP.c.c.c.I I hXNXiXK.I I I I Y.vXnXnXA.",
"I.SXNXNXNXNXNXnXnXNXnXnXnXnXcXcXcXcXcXcXcXxXcXcXnXcXcXcXxXxXxXcXnXNXNXnXnXnXnXnXnXNXNXNXNXCXNXNXNXCXSXSXSXSXNXNXNXNXNXCXNXNXnXS.",
"S.iXiXiXiXiXiXiXiXiXiXiXiXiXiXiX-XT.Y.Y.Y.Y.T.T.-XiXiXiXiXiXiXpXgXgXgXgXgXgXgXgXgXpXpXiXiXiXiXiX-XiXiXiXiXiXiXiXpXpXpXgXgXhXgXY ",
"b.F.A.A.A.A.A.A.F.F.F.F.F.F.K.H.H.H.H.H.H.H.H.H.H.K.F.F.F.F.F.F.F.F.F.F.F.F.H.H.H.H.H.H.J.J.J.J.J.J.J.J.J.J.H.H.H.H.H.H.H.H.J.U ",
"Y T T T T T T T T T T T b.S.S.A.A.A.A.A.A.A.A.A.S.S.S.S.b.b.T T T T T T T T T T b.b.b.S.S.A.A.A.A.F.F.A.A.A.A.A.S.S.S.S.b.b.S.F ",
";X;X;X;X;XU.U.U.U.U.V.V.V.V.V.B.B.B.B.V.V.V.V.L.U.U.U.U.U.U.U.U.U.U.U.U.L.V.V.V.B.B.N.N.N.N.N.N.N.N.N.N.N.B.V.V.V.L.L.L.V.V.L.B."
};
