/* XPM */
static char *_87e005a3a4c489dd9dfc164ebb90876ZEslTpBPcvkF8QVF[] = {
/* columns rows colors chars-per-pixel */
"64 64 256 2 ",
"   c #0E190A",
".  c #2A1914",
"X  c #39171C",
"o  c #3B191D",
"O  c #371816",
"+  c #35130A",
"@  c #132A0D",
"#  c #38261B",
"$  c #263716",
"%  c #2D2E13",
"&  c #391C24",
"*  c #3A3927",
"=  c #332C2F",
"-  c #1A1A33",
";  c #431C1D",
":  c #481A17",
">  c #571B17",
",  c #4C0D0C",
"<  c #661A16",
"1  c #731411",
"2  c #4C231D",
"3  c #46221D",
"4  c #53241B",
"5  c #5C2A1D",
"6  c #58261C",
"7  c #41391A",
"8  c #632719",
"9  c #6E2E1E",
"0  c #421E21",
"q  c #511F21",
"w  c #452223",
"e  c #4B2522",
"r  c #4C2926",
"t  c #4D2B29",
"y  c #452D27",
"u  c #532A23",
"i  c #5B2C22",
"p  c #522E2B",
"a  c #542622",
"s  c #47372A",
"d  c #5A332B",
"f  c #59332A",
"g  c #453C39",
"h  c #5A3633",
"j  c #5A3935",
"k  c #442839",
"l  c #642B22",
"z  c #643323",
"x  c #6C3925",
"c  c #63362A",
"v  c #653A2C",
"b  c #6C3C2B",
"n  c #6A3626",
"m  c #733C25",
"M  c #743D29",
"N  c #633D34",
"B  c #693D34",
"V  c #753430",
"C  c #1B4316",
"Z  c #2F4518",
"A  c #314F25",
"S  c #3F6537",
"D  c #474518",
"F  c #58453A",
"G  c #4F502E",
"H  c #74422D",
"J  c #7A442D",
"K  c #784126",
"L  c #6A4335",
"P  c #6B453A",
"I  c #6D493B",
"U  c #654339",
"Y  c #734332",
"T  c #7C4B33",
"R  c #734B3C",
"E  c #7A4C3B",
"W  c #774736",
"Q  c #6A5938",
"!  c #744934",
"~  c #446A37",
"^  c #576D38",
"/  c #656537",
"(  c #323251",
")  c #303267",
"_  c #583142",
"`  c #524F49",
"'  c #694946",
"]  c #734E42",
"[  c #7B4F41",
"{  c #7C5342",
"}  c #785548",
"|  c #785955",
" . c #6A584B",
".. c #547243",
"X. c #7A635A",
"o. c #6E6C4A",
"O. c #6E606F",
"+. c #314963",
"@. c #9B0A09",
"#. c #98110D",
"$. c #871715",
"%. c #981813",
"&. c #880C0C",
"*. c #A61914",
"=. c #B51913",
"-. c #AF0F0C",
";. c #94211B",
":. c #B8241C",
">. c #AA241C",
",. c #882723",
"<. c #873727",
"1. c #953729",
"2. c #922E2A",
"3. c #A93228",
"4. c #B03128",
"5. c #D0150E",
"6. c #CB221A",
"7. c #C82F25",
"8. c #E2281F",
"9. c #84492A",
"0. c #8C502E",
"q. c #834C34",
"w. c #874B37",
"e. c #83523C",
"r. c #8B5539",
"t. c #975938",
"y. c #964333",
"u. c #AC4B38",
"i. c #99623A",
"p. c #A8663B",
"a. c #B0613C",
"s. c #C64437",
"d. c #D74F39",
"f. c #F4593D",
"g. c #EB533C",
"h. c #865A46",
"j. c #945F43",
"k. c #865F55",
"l. c #94514A",
"z. c #B55547",
"x. c #8A6448",
"c. c #92644B",
"v. c #956A4D",
"b. c #9B6C4E",
"n. c #976346",
"m. c #896457",
"M. c #936351",
"N. c #9B6E52",
"B. c #976A58",
"V. c #9E7256",
"C. c #9A734F",
"Z. c #A76A48",
"A. c #A37354",
"S. c #A97957",
"D. c #AC7C5A",
"F. c #A57757",
"G. c #B67954",
"H. c #B06F4E",
"J. c #97756A",
"K. c #8F726C",
"L. c #A77A66",
"P. c #AA7F6F",
"I. c #D85A47",
"U. c #ED5D44",
"Y. c #E35B44",
"T. c #F45E43",
"R. c #F95E41",
"E. c #DA624D",
"W. c #D17154",
"Q. c #E4644E",
"!. c #EC634B",
"~. c #EE6047",
"^. c #F46146",
"/. c #F4644A",
"(. c #F5694E",
"). c #F96A4F",
"_. c #ED6B54",
"`. c #E66954",
"'. c #F46C53",
"]. c #F46D58",
"[. c #EB725D",
"{. c #F5745B",
"}. c #F67159",
"|. c #EA7A66",
" X c #F57B64",
".X c #F47E69",
"XX c #F57861",
"oX c #CC7E70",
"OX c #B23B4E",
"+X c #75895A",
"@X c #B5865C",
"#X c #AC8457",
"$X c #938876",
"%X c #AC8369",
"&X c #B58869",
"*X c #A68376",
"=X c #BE9273",
"-X c #BD947C",
";X c #B58A75",
":X c #C58658",
">X c #D68756",
",X c #C49979",
"<X c #D08E68",
"1X c #E9836C",
"2X c #F5826C",
"3X c #FC8269",
"4X c #EA8977",
"5X c #F48671",
"6X c #F68A75",
"7X c #F58E79",
"8X c #F98B76",
"9X c #F6917D",
"0X c #F9937E",
"qX c #E89577",
"wX c #EA9D70",
"eX c #617393",
"rX c #8B7E90",
"tX c #8E888F",
"yX c #B2978D",
"uX c #ADAC90",
"iX c #8E95B4",
"pX c #B0A0A6",
"aX c #C29984",
"sX c #D4988E",
"dX c #EB9686",
"fX c #F59582",
"gX c #FA9681",
"hX c #F59A85",
"jX c #FB9A85",
"kX c #F59C8A",
"lX c #FA9D8A",
"zX c #F59F90",
"xX c #CAA391",
"cX c #FAA18E",
"vX c #F5A18E",
"bX c #F5A493",
"nX c #F9A492",
"mX c #FAA996",
"MX c #FAAC9B",
"NX c #F6AA99",
"BX c #FCB19E",
"VX c #F5B09E",
"CX c #EBAA98",
"ZX c #CAB3AA",
"AX c #CCB3AB",
"SX c #E8B3A7",
"DX c #FDB4A2",
"FX c #F7B8A9",
"GX c #F0B7AE",
"HX c #D4C4BA",
"JX c #F5C5B6",
"KX c #B1B6D7",
"LX c #EED5CD",
"PX c #E9E5E8",
"IX c #D0CED9",
"UX c #C8BCC9",
/* pixels */
"9X|.2X{.{.^.T./.T.6X|.5X^.'./.^./.^.9XXX}.(.[.9X^.T.hX7XbXmX9X2X XY.vXXX5XY.|.FX'.^.'.nX2XzX2X XXX|.8X[.Q.VX.X5XY.dX X3X[.|.fXSX",
"fX~.Q. XfX(.'.(.(.(.'.hX_.'.'.}.}.{.'.!.dX'.'.{.XX{.{.fX/.'.6XXX^./.Y.hXT./.^.Q.|.5X(.}. Xf.(..XhX9X2XT.'.Q.6X'./.Q.|.'.!./..XSX",
"I././.{.qXbX6XcXMXMX4X XhXnXCX.XmXmXmXdX2XmXnXJX7XbXvX X/.^.{.mX(.T.g.mX2XT.T.W.'.T.^.{.FXXXT.^.^.^.hXnXXXT..XbX9XU.hX(.^.^.`.SX",
"Y././.MX XQ./.(.2XMX/.^./.kXY./.f..XbXT.(.T.bX{.fX2X|. X6X6XkXhX0XjX9XSX2XhX7XbX5X6X2X7X XfX9X0X X X[.`.nXXX2XI.VXfXkXNX(.^.`.SX",
"mXmXcX(.2X(.(.(./.~..X4X'.(.^.^.^./.^..X|.^.(.T.^.^.5XJX4X|.Y.^.^.XXBX(.^.(.nX8XfX5X1X_.^./.XX5X7X{.~.U.|. X!.^.`.mXkXT.hXMXBXSX",
"mXXXT.U.'.9X.X1XQ.4XlX5X2XQ.nX2XfXQ.4XcX6X2XE.NXnX9X'.kXMXjX X|.7XfXfXT.^.2XMX7XXX{.(._.hX/.T.9X{.{.!.dX2X^.^.Q.bX'.f.U.T. XmXCX",
"kXT.(.fX6X7X{.U./.Q.9XT.T.{.2X9XT.^.U.1X{.~./.Q.CX/.lX7X/.{.lXmXkX5X_.kX'./.XXT.!..X_.^.6X6X(.|.4XXXU.4X{.mXnXNXXXvXmXnX'.T.gXsX",
" X~.7XmX{.2XkX/.^.g.mX{.^.^.T.nX{./.^.|.jX/./.Y.oXR.6X_.XX/._.XX/.^.^.Q.5X'.U.!.kXf./.^.G.'.!.!.[.kX7X}./.T.fX6X(.f. XkXkXU.7XsX",
".X9XmXQ.'.9XvX6X2X[.vX0X2X X{.hXfX2X.X4XkX6X6X1XBX2X3X5X'./.^.U.6XlX.X/.Q.mX2XQ.bX9X'.'.4X{.(./.~.`.DXcXfXXX~.{.mX8X/.~.bXfXXXsX",
"8X[.[.'.{.`./.}.6XFX{.^.{.dX|.[./.{.nXgXT.(.5XMX XhX|.Q.XX{.{.{.XXI.BX}..X[.dXmX9X{.6XnXcXNX6X^.^.Y. XXXI.nX{.XXI.bX{.{.[.|.jX<X",
"dX!.`..X{.T.^.^.^._.|.qX(.(.(./././.'.!.bX'.T.'.T.f.XXlX6XbXfX.X_.U.|.6X{.U.!.bX'.'.T.4X2X{.{.hXnXkX{._.U.4X2X'.U.[.7XXX!.~.4XsX",
"Q././.^.nX6X2X8X6X.X X6XXX7X9X2X6X7X6X[.gX{.5XlXlXlXlX6X/.^.6X X^./.!.4X/././.I.|.{./.'.kX(././.[.Q.DX{.XXY.fX9X'./.4X}././.I.sX",
"Q././.MXdX1X'.9XBXbX(.2XcXvX4X'.2XnXMX7X/.cXMXmXfXfX1X}.(.(.}.FX'.^.U.dXlXf.^.E.2X^.^.'.kXfX(.(.(.(.2XdX X(.{.4XhX'.4XnX'.(.E.sX",
"cXmXhX(.dX^./.T.7X2X{.^.~.fXT./.^.!.hX X[.T.7X{.{.{.7XhX1X6XdX}.2XmXMXhXT.MXMXMXkXfX1X7X{.{.hXBX6X2X`.Q.bX X.XY.7XmXkX^.hXmXMXsX",
"mX.Xf././.'./..X^.~.kX~.(.}.^././.'.^.2X[.(./.'.'.'.XXFXGX1Xf.^.T.^.hX{.}.T.5X X'.'.kX X^./././.0X{./.^.E.8XT./.Y.sX).^.T.XXMXsX",
"0X^.^.^.XX{.^.9X(./././.(.MX{.^.U.dXfXT.T.Q. X X X|.VXcXDX`.(.(.'.(.'.2X|.'.(.(.'.'. XhX^.^.^.T. XnXT.T.Y.MX{.T.f.4X(.^.^.T.6XsX",
"nX X X{.0XMXNX0XNX6X X2X5XbX6XgX6XCX2XhXfXkX7X6X X.XnXfXnXmXnXkXdXmX<XE.`.E.|.8XlXvXfXnXBXhXfX0XVX2XbXlXvXhX2XjXfXmXfX2X.X.XMXxX",
"bXdX[.fX7XdXE.(.'.bXdX4X`./././.NXXX(.f.7XlXhX4XdX2X/.~.Q.kXkX7X2X(.qX|.^.^.Y..XNXE.Y.T.{.NX4X|.g.^.T.2XkX(./.'.NXXX XvX}.4XhXsX",
"1X XFX(..X9X/././.{.JX6XT.T.T.T.(._.bX^.T.'.f.JX{.^.^././.^.fXFXI.^.T.kX{./.^.'.kX^.T.T.T.kXDXg.T.T.^.^.~.bX[.(././.(.T.mX|..XsX",
"XX3XjXjXmXMXlXjXjXlXDXjXgXgXgXfX7X].hX'.fXlXlXnX(.0XlXlXcXnXMXDX8X3X3XcXBXBXBXDXDXMXMXnXcXbXNXkXkXkXkXkX6XcX8XjXDXDXDXDXBXlX0XSX",
"L.L.F.L.P.L.L.L.L.L.P.*X*X*X%XP.L.L.L.L.V.V.V.M.j.B.M.M.M.M.M.M.M.c.c.c.M.M.c.c.M.M.B.B.B.B.B.B.M.M.c.h.[ W Y M Y W Y Y L R E R ",
"N u u 4 4 4 2 2 2 2 2 2 2 2 2 2 e e u u u u u u u u u u u u e e e 2 e 2 2 2 2 2 3 3 3 w 2 e e e e e e e e e e t e e e e e w d d ",
"o X X X X X X o o o o o X X X X X X X X X X X X X X X X X X X X X X X X X X o o X X X X X X X X X X X X X X X X X X X X X X h F.",
"X X X X o o o o X o X o X X X X X X X X X X X X X X N h h h h h d f p p t r y y X o X X X X X X X X X X X X X X X X X X X X p #X",
"X o o o o o X X X X X X X X X X o o ; ; ; ; o w 0 p t h j j j ' } } | X.X.X.G ^ D o 0 0 0 w 0 w w w r r t r r t t t t r r o r #X",
"o L L L L b v v B B B i n m z m K 5 x m 8 K u N j L z 3 5 . -   . . s @ D . / Z F w I P p e 4 2 w ; w w ; : w w w w h I R w ' #X",
"o p t p p p p p e i : + =.1 8 8 6 6 4 4 2 ; i p h Y @ @ - O.tXtXtX( =   $ . G @ f t P i z 9.J J J J J J K J K K K i 6 L I w | @X",
"o f U L L L L L L m u.sXFXSXsXB.l.< 9.x m 8 z p U L * eXiXeX= V pXIXKXeX( ( -   y p p H n 2 3 2 3 2 2 i 2 # o : : 4 9.e R w ' @X",
"o h U L L L L L n H.oXaXI.gX8XFXLXxX9 *.@.t.b t j I rXUXpXtXAX< yXIXPXAXrX) -   F p t q.z   @ G o.A @   . @ G G G s t.2 R w ' @X",
"0 | U L L P L B 3.<XdXxX:.}.}.g.z.|.mX>.1 D.x t N r.F rX` ZXLXGXPXs.z.#     )   +Xd p r.r.. @ $ $ h # O . $ * F Q $ @X: R w ' @X",
"w m.U L L L L P : <.3.1 >.*.>.1 m 8 8 =.@.G.m r h G.J # O , V V 2.+   @ 7 % t F pXt p e.H.n.A.#X@X@X@X:X&X@XD.A.x.c S.u { w ' @X",
"w B.R { { { { { n H.G.Z.w.<.G.:X:X:Xt.n <.z.w t t G.:XG.A.o.Q Q / / o.$XCXyXJXJXK.h p r.Z.# . . . . O O O + O O ; O S.z N.0 j @X",
"w m.b.S.S.S.S.D.R n b M W W H E E W Y J b u d 0 d i a 4 4 ; o o O O O o & t t t p U t r.Z.@ $ / G G G %   $ D / G D A.c N.L h @X",
"r X.N.W W Y Y Y d 2 8 x x m x m m m m m i f X X X u z b b x b n x b B w.v V p c : f t t.Z.O $ Z { Q Z 2 # $ A G Q D b.B A.U h @X",
"r h.h.z % % * Z D 6 u 2 e ; ; ; o o : ; > m r.W r o e t t t r 0 X X < ;.$.;.1.>.u.n e r.@Xw.I h.x.%XV.D.A.h.E T T x N.L A.N j @X",
"r I c :XZ A A C D M U L d j j ' ' N 1 8.s.H.H.4.3.#.i ' ' ' j i U 8 ,.2.,.,.9 2.4.<.d r.G.# G / Q G % : O G x.x.x.G c.W D.R p S.",
"r R f >Xi./ Q C./ w.A.b.} | tX$XB W I.g.nXmXDX|.1XW.u.3.1.X.K.,.e.1.,.1 1.1.;.2.,.;.l j.H.. $ G I o.* + . D Q G G A h.W D.F.c.F.",
"w h E n c.j.b . M.h.S.N.| m.K.B.l.LXdXu.= ( k = * y 7.*.w.X.1 @.b.<.,.u.>.4.9 3.$.,.f e.:XA.C.F.F.L.V.A.A.N.V.N.A.S.F.E D.S.F.A.",
"h h.A.r.r.h.n.n.n.F.D.N.| yXK.k.AXtX+.+._ OXO.iXKXiXeXeXiXK.5.@.v.v t.n l V > H.<Xa I w 0.t.n.n.n.n.b.n.n.A.b.n.H.c.n.Y D.S.F.C.",
"h.S.E z b c z 5 6 : n.N.K.yXJ.# a O.iXeXK.l pXLXLXPXPXUXO.' 5.-.p N 6 w.<X<X<XM 2 h P u K K K K n v b n b d M 5 M p 6 Y D.S.S.C.",
"h.c.E G.G.E.Q.1X1X9.h.N.J.*XyXU g tXtXpXyXHXZXpXyXyXs.8 m.X.a #.w I p <.u.u.u.y.6 { E N u u i i n f d c c c u d f x v v.S.S.D.v.",
"h.h.e.<Xb > $.:.4.:Xn.A.J.$XxX*X| s O p t r t ' , o F K.*XJ.| AXt ] L f w w e 4 h.D.S.{ R R ] R ] ] [ { h.{ h.c.c.h.F.@XD.S.S.c.",
"{ x.5 G.wXwXn.r.w.Z.n.v.f yXHXAXAXZXyXyXyXxXxXxXyXZXAXAXAXZXxX*XP N.h.h.I P P L h.N.D.D.A.b c T W Y M z T &XD.i c b L v u T S.x.",
"E c.f a Y L L B n f b.v.I p e w 3 3 3 3 3 e e w r t p d f h N R S.S.F.B.yXyXyXyXyX} A.S.v.v u L B M 1.n 2 N.Y 6 d d f p 3 b F.x.",
"R S.x.h.h.R R [ { N.D.D.v.v.M.v.v.C.d t u r N N.c.c.E d c v L h.F.D.j P 3 y r w w *XI S.N.K O : :.1 6.-., z t.i < 7.>.: ; q.F.x.",
"R S.D.b.c.c.A.D.D.D.N.c.c.b.D.D.A.i H.W.W.W.p.9 N.W 0.t.t.q.9.<.L @XN  .  A ~ Q y | P D.N.e.< -.6.=.@.8.8.8 r.l #.@.4.&.w j.A.h.",
"I D.N.P.yXyXm.A.N.h.m.K.K.m.n.D.z > , ,.1 2.$.1 l 6 < *.1 7., $.> c.N  .  @ @ $ * | N D.A.e.$.7.:.-.=.7.*.n t.9 7.*.$.:.< n.A.h.",
"I D.{ # s s t P U p # ..G * h n.b q.z.z.z.z.y.u A.H.< ,.4.1.3.9 G.r.R m.P.J.J.*X*Xk.[ N.F.6 %.@.#.=.@.*.#.%.L <.7.#.4.:.$.n.N.h.",
"R h. .C ~ S A | h ` ~ A ..S ` m.5 Z.:X:X@X:XG.p.i 9.Z.t.t.t.t.n.e.E m.N % L U F s F h.F.} e &.=.*.4.:.7.7.1 N W 1 -.=.@.8 r.b.h.",
"R R tXA ~ ..o.m.h K.G ..A Z K.M.d : z x 5 K x : f : 4 z x z : 5 ! ] { O @ A ^ ~ A * I &X] j q > : : : ; a N.z n l 1.<.b f z c.x.",
"} [ P yXuXZXyXI w } AXHXZXZX} N ] ; t z n b J b N L q.t.t.t.r.q.c.R m.* @ C C C C ` } #Xv m b.A.Z.Z.n.r.m c.z Y } ] P U p i e.x.",
"| h.p U m.X. .p p j ] m.h.h.I I c n.T w.w.E z b e.Y i 4 6 6 i z E { k.m.* F ` ` ` s &XA.f m < &.>.:.l . 9.b m O o %.:.=.&.f e.x.",
"k.F.P p f w X h.R h r ; w w { h.4 5 1.I.`.H.D p.: > 1XG q.G t.t.i U k.v F F s t t j [ &Xf 1.&.#.=.#.=.1 t.v t.,.%.@.7.6.&.K E c.",
"k.&Xc.J.AXSXm.%XN.} | ZXxXJ.V.v.c > p.Z.H.a.n.K 2 : t.t.p.p.p.9.4 U '   C A ~ A A   U %Xi y.*.:.=.7.=.: Z.c a.5.d.6.=.5.1 t.R v.",
"m.&XR # @ % # h.h.' # * @ F } { R f 6 t.t.t.m : d u 5 t.t.0.z ; h N  .* @ C A A C * ' m.6 1.6.-.=.-.%.t H.c a.%.>.%.%.s.< Z.Y v.",
"m.M. .A ..~ A } U $ ~ ~ A A U R N.E q.M m x M W h.t.B q.H.q.n.G.z I ' | g g g g g F ] ] r 1.$.%.>.3.2.H H.u H.wX>XwXwX<X<XW.v C.",
"m.h.K.......o.} N ` ~ +X~ F J.P @XJ z i <.u.: 5 H Y y.4.I.7.3.t.s.c 2 m.P.L.L.P.J.k.c N r z S.@XH.:X<X<Xt.u : t.t.t.0.t.0.z h.V.",
"B.} h K.uXuX*X] h $X$X$XuXxXJ.N e.9 t.a.u.9.).1.Z.c >X4.4.d.4.l.;.6 v z x b n T r.z f I r ; n 9.9.9.0.0.9 f ; 0.0.i.0.q.e.2 %XF.",
"J.} t ] P.m.} p h U L.*X*XN.j F.E m p.a.W.,XdXt.H 4 9.p.G.Z.H.:XZ.b U u J b e.m L e R { d z x 0.H 0.q.z r I v 6 x b b i z { &XD.",
"%XN.U p h j p U L t ] } ] N x.F.P z K 0.i.Z.t.x 5 N 4 x 9.G.i.9.4 N U d 2 ; t 2 a d h.A.R p ; 4 4 4 2 p c.c.R N f d d h E S.L.D.",
"L.&Xx.] R { N.h.I [ N j N N.&XD.{ ! i 4 5 6 5 R b.R P u 4 6 4 6 v.%Xx.h.} } h.} { V.L.D.D.B.h.h.h.h.h.A.D.F.V.V.F.F.L.%X&X&X;X#X",
"L.&X&X&X&X=X,X,X=X,X,X,X,XaXxXxXaXaX=X&X&X&X&X,X=X=X,X&X%X%X%X&X=X&X=X=X=X=X=X=X=X-X-XaXaX=X=X=X=X=X,XaXaXaX=X=X-X-X;X;X;X%XL.C.",
"{ b.c.c.n.h.h.r.e.T T T T T T T q.n T q.T Y Y T e.e.r.! Y Y e.e.T e.T q.Y q.T T T J J J K M J M J M K J J K H H H H T H H T T v.",
"! H T T T b H T H T H T T T q.J b b b T T b b b W T b v z z z W H b b b H n H H v z H H b b J b Y H H T T T b H T v H H i c c x."
};
