/* XPM */
static char *ec7dfe324dfd4ad6e6ab5a82f60ed9f9NZlhsd4n6YVJWM2R[] = {
/* columns rows colors chars-per-pixel */
"48 48 8 1 ",
"  c None",
". c #141619",
"X c #3C454C",
"o c #515D66",
"O c #65787F",
"+ c #7A9099",
"@ c #869199",
"# c #A4ACB2",
/* pixels */
"                                                ",
"                                                ",
"                                                ",
"   @@@####################################@@@   ",
"   @@@####################################@@@   ",
"   @@@####################################@@@   ",
"   ###ooo+++oooooo+++oooooo+++oooooo+++ooo###   ",
"   ###ooo+++oooooo+++oooooo+++oooooo+++ooo###   ",
"   ###ooo+++oooooo+++oooooo+++oooooo+++ooo###   ",
"   ###+++OOO++++++OOO++++++OOO++++++OOO+++###   ",
"   ###+++OOO++++++OOO++++++OOO++++++OOO+++###   ",
"   ###+++OOO++++++OOO++++++OOO++++++OOO+++###   ",
"   ###XXX+++XXXXXX+++XXXXXX+++XXXXXX+++XXX###   ",
"   ###XXX+++XXXXXX+++XXXXXX+++XXXXXX+++XXX###   ",
"   ###XXX+++XXXXXX+++XXXXXX+++XXXXXX+++XXX###   ",
"   ###...+++......+++......+++......+++...###   ",
"   ###...+++......+++......+++......+++...###   ",
"   ###...+++......+++......+++......+++...###   ",
"   ###+++OOO++++++OOO++++++OOO++++++OOO+++###   ",
"   ###+++OOO++++++OOO++++++OOO++++++OOO+++###   ",
"   ###+++OOO++++++OOO++++++OOO++++++OOO+++###   ",
"   ###...+++......+++......+++......+++...###   ",
"   ###...+++......+++......+++......+++...###   ",
"   ###...+++......+++......+++......+++...###   ",
"   ###...+++......+++......+++......+++...###   ",
"   ###...+++......+++......+++......+++...###   ",
"   ###...+++......+++......+++......+++...###   ",
"   ###+++OOO++++++OOO++++++OOO++++++OOO+++###   ",
"   ###+++OOO++++++OOO++++++OOO++++++OOO+++###   ",
"   ###+++OOO++++++OOO++++++OOO++++++OOO+++###   ",
"   ###...+++......+++......+++......+++...###   ",
"   ###...+++......+++......+++......+++...###   ",
"   ###...+++......+++......+++......+++...###   ",
"   ###...+++......+++......+++......+++...###   ",
"   ###...+++......+++......+++......+++...###   ",
"   ###...+++......+++......+++......+++...###   ",
"   ###+++OOO++++++OOO++++++OOO++++++OOO+++###   ",
"   ###+++OOO++++++OOO++++++OOO++++++OOO+++###   ",
"   ###+++OOO++++++OOO++++++OOO++++++OOO+++###   ",
"   ###...+++......+++......+++......+++...###   ",
"   ###...+++......+++......+++......+++...###   ",
"   ###...+++......+++......+++......+++...###   ",
"   @@@####################################@@@   ",
"   @@@####################################@@@   ",
"   @@@####################################@@@   ",
"                                                ",
"                                                ",
"                                                "
};
